%TF.GenerationSoftware,KiCad,Pcbnew,(5.1.6)-1*%
%TF.CreationDate,2020-12-26T21:50:01+02:00*%
%TF.ProjectId,cubetimer,63756265-7469-46d6-9572-2e6b69636164,rev?*%
%TF.SameCoordinates,Original*%
%TF.FileFunction,Copper,L2,Bot*%
%TF.FilePolarity,Positive*%
%FSLAX46Y46*%
G04 Gerber Fmt 4.6, Leading zero omitted, Abs format (unit mm)*
G04 Created by KiCad (PCBNEW (5.1.6)-1) date 2020-12-26 21:50:01*
%MOMM*%
%LPD*%
G01*
G04 APERTURE LIST*
%TA.AperFunction,ComponentPad*%
%ADD10C,1.524000*%
%TD*%
%TA.AperFunction,ComponentPad*%
%ADD11C,2.200000*%
%TD*%
%TA.AperFunction,ComponentPad*%
%ADD12R,1.700000X1.700000*%
%TD*%
%TA.AperFunction,ComponentPad*%
%ADD13O,1.700000X1.700000*%
%TD*%
%TA.AperFunction,Conductor*%
%ADD14C,0.254000*%
%TD*%
G04 APERTURE END LIST*
D10*
%TO.P,U1,13*%
%TO.N,GND*%
X160230000Y-107050000D03*
%TO.P,U1,14*%
X160230000Y-104510000D03*
%TO.P,U1,15*%
%TO.N,Net-(U1-Pad15)*%
X160230000Y-101970000D03*
%TO.P,U1,16*%
%TO.N,Net-(U1-Pad16)*%
X160230000Y-99430000D03*
%TO.P,U1,17*%
%TO.N,Net-(SW2-Pad2)*%
X160230000Y-96890000D03*
%TO.P,U1,18*%
%TO.N,Net-(U1-Pad18)*%
X160230000Y-94350000D03*
%TO.P,U1,19*%
%TO.N,Net-(U1-Pad19)*%
X160230000Y-91810000D03*
%TO.P,U1,20*%
%TO.N,Net-(U1-Pad20)*%
X160230000Y-89270000D03*
%TO.P,U1,21*%
%TO.N,Net-(U1-Pad21)*%
X160230000Y-86730000D03*
%TO.P,U1,22*%
%TO.N,GND*%
X160230000Y-84190000D03*
%TO.P,U1,23*%
X160230000Y-81650000D03*
%TO.P,U1,24*%
%TO.N,+3V3*%
X160230000Y-79110000D03*
%TO.P,U1,12*%
X137370000Y-107050000D03*
%TO.P,U1,11*%
%TO.N,Net-(U1-Pad11)*%
X137370000Y-104510000D03*
%TO.P,U1,10*%
%TO.N,Net-(U1-Pad10)*%
X137370000Y-101970000D03*
%TO.P,U1,9*%
%TO.N,Net-(U1-Pad9)*%
X137370000Y-99430000D03*
%TO.P,U1,8*%
%TO.N,Net-(U1-Pad8)*%
X137370000Y-96890000D03*
%TO.P,U1,7*%
%TO.N,Net-(SW1-Pad1)*%
X137370000Y-94350000D03*
%TO.P,U1,6*%
%TO.N,Net-(U1-Pad6)*%
X137370000Y-91810000D03*
%TO.P,U1,5*%
%TO.N,Din*%
X137370000Y-89270000D03*
%TO.P,U1,4*%
%TO.N,Net-(U1-Pad4)*%
X137370000Y-86730000D03*
%TO.P,U1,3*%
%TO.N,Net-(U1-Pad3)*%
X137370000Y-84190000D03*
%TO.P,U1,2*%
%TO.N,GND*%
X137370000Y-81650000D03*
%TO.P,U1,1*%
%TO.N,Net-(U1-Pad1)*%
X137370000Y-79110000D03*
%TD*%
D11*
%TO.P,SW1,2*%
%TO.N,GND*%
X69908971Y-83109951D03*
%TO.P,SW1,1*%
%TO.N,Net-(SW1-Pad1)*%
X76700000Y-82300000D03*
%TD*%
%TO.P,SW2,1*%
%TO.N,GND*%
X225670000Y-81000000D03*
%TO.P,SW2,2*%
%TO.N,Net-(SW2-Pad2)*%
X220193771Y-85096953D03*
%TD*%
D12*
%TO.P,J1,1*%
%TO.N,GND*%
X38200000Y-69000000D03*
D13*
%TO.P,J1,2*%
%TO.N,Din*%
X38200000Y-66460000D03*
%TO.P,J1,3*%
%TO.N,+3V3*%
X38200000Y-63920000D03*
%TD*%
%TO.P,J2,3*%
%TO.N,Net-(J2-Pad3)*%
X259300000Y-63920000D03*
%TO.P,J2,2*%
%TO.N,Net-(J2-Pad2)*%
X259300000Y-66460000D03*
D12*
%TO.P,J2,1*%
%TO.N,Net-(J2-Pad1)*%
X259300000Y-69000000D03*
%TD*%
D14*
%TO.N,GND*%
G36*
X18054926Y-60658754D02*
G01*
X18067581Y-60660000D01*
X279082732Y-60660000D01*
X279407825Y-60677023D01*
X279677419Y-60745228D01*
X279928632Y-60864499D01*
X280151897Y-61030295D01*
X280338705Y-61236297D01*
X280485681Y-61480882D01*
X280570264Y-61700644D01*
X286036180Y-79694959D01*
X286127017Y-80053971D01*
X286143818Y-80374679D01*
X286098006Y-80692541D01*
X285991328Y-80995452D01*
X285827843Y-81271878D01*
X285613786Y-81511278D01*
X285357299Y-81704547D01*
X285045587Y-81855227D01*
X284985948Y-81875674D01*
X284985609Y-81875829D01*
X284980145Y-81877695D01*
X284967161Y-81882435D01*
X284954278Y-81887447D01*
X284941504Y-81892728D01*
X284928843Y-81898274D01*
X278658566Y-84723869D01*
X272336960Y-87414776D01*
X265960281Y-89972744D01*
X259531495Y-92396585D01*
X253053354Y-94685261D01*
X246528662Y-96837780D01*
X239960346Y-98853178D01*
X233351271Y-100730575D01*
X226704291Y-102469160D01*
X220022405Y-104068148D01*
X213308477Y-105526856D01*
X206565475Y-106844637D01*
X199796361Y-108020913D01*
X193004098Y-109055170D01*
X186191615Y-109946959D01*
X179362027Y-110695876D01*
X172518194Y-111301604D01*
X165663238Y-111763869D01*
X162327000Y-111918747D01*
X162327000Y-108700000D01*
X162324560Y-108675224D01*
X162317333Y-108651399D01*
X162305597Y-108629443D01*
X162289803Y-108610197D01*
X162270557Y-108594403D01*
X162248601Y-108582667D01*
X162224776Y-108575440D01*
X162200000Y-108573000D01*
X159356306Y-108573000D01*
X159367809Y-108545091D01*
X159391378Y-108490102D01*
X159394103Y-108481299D01*
X159422308Y-108387881D01*
X159433933Y-108329174D01*
X159446365Y-108270684D01*
X159447327Y-108261530D01*
X159447328Y-108261524D01*
X159447328Y-108261519D01*
X159456850Y-108164402D01*
X159460000Y-108132419D01*
X159460000Y-108072774D01*
X159511020Y-108255656D01*
X159760048Y-108372756D01*
X160027135Y-108439023D01*
X160302017Y-108451910D01*
X160574133Y-108410922D01*
X160833023Y-108317636D01*
X160948980Y-108255656D01*
X161015960Y-108015565D01*
X160230000Y-107229605D01*
X160215858Y-107243748D01*
X160036253Y-107064143D01*
X160050395Y-107050000D01*
X160409605Y-107050000D01*
X161195565Y-107835960D01*
X161435656Y-107768980D01*
X161552756Y-107519952D01*
X161619023Y-107252865D01*
X161621268Y-107204960D01*
X175732727Y-107204960D01*
X175732727Y-107724010D01*
X175833988Y-108233086D01*
X176032620Y-108712626D01*
X176320989Y-109144200D01*
X176688012Y-109511223D01*
X177119586Y-109799592D01*
X177599126Y-109998224D01*
X178108202Y-110099485D01*
X178627252Y-110099485D01*
X179136328Y-109998224D01*
X179615868Y-109799592D01*
X180047442Y-109511223D01*
X180414465Y-109144200D01*
X180702834Y-108712626D01*
X180901466Y-108233086D01*
X181002727Y-107724010D01*
X181002727Y-107204960D01*
X180901466Y-106695884D01*
X180702834Y-106216344D01*
X180414465Y-105784770D01*
X180047442Y-105417747D01*
X179615868Y-105129378D01*
X179136328Y-104930746D01*
X178627252Y-104829485D01*
X178108202Y-104829485D01*
X177599126Y-104930746D01*
X177119586Y-105129378D01*
X176688012Y-105417747D01*
X176320989Y-105784770D01*
X176032620Y-106216344D01*
X175833988Y-106695884D01*
X175732727Y-107204960D01*
X161621268Y-107204960D01*
X161631910Y-106977983D01*
X161590922Y-106705867D01*
X161497636Y-106446977D01*
X161435656Y-106331020D01*
X161195565Y-106264040D01*
X160409605Y-107050000D01*
X160050395Y-107050000D01*
X160036253Y-107035858D01*
X160215858Y-106856253D01*
X160230000Y-106870395D01*
X161015960Y-106084435D01*
X160948980Y-105844344D01*
X160818356Y-105782921D01*
X160833023Y-105777636D01*
X160948980Y-105715656D01*
X161015960Y-105475565D01*
X160230000Y-104689605D01*
X160215858Y-104703748D01*
X160036253Y-104524143D01*
X160050395Y-104510000D01*
X160409605Y-104510000D01*
X161195565Y-105295960D01*
X161435656Y-105228980D01*
X161552756Y-104979952D01*
X161619023Y-104712865D01*
X161631910Y-104437983D01*
X161590922Y-104165867D01*
X161497636Y-103906977D01*
X161435656Y-103791020D01*
X161195565Y-103724040D01*
X160409605Y-104510000D01*
X160050395Y-104510000D01*
X160036253Y-104495858D01*
X160215858Y-104316253D01*
X160230000Y-104330395D01*
X161015960Y-103544435D01*
X160948980Y-103304344D01*
X160813240Y-103240515D01*
X160891727Y-103208005D01*
X161120535Y-103055120D01*
X161315120Y-102860535D01*
X161468005Y-102631727D01*
X161573314Y-102377490D01*
X161627000Y-102107592D01*
X161627000Y-101832408D01*
X161573314Y-101562510D01*
X161468005Y-101308273D01*
X161315120Y-101079465D01*
X161120535Y-100884880D01*
X160891727Y-100731995D01*
X160814485Y-100700000D01*
X160891727Y-100668005D01*
X161120535Y-100515120D01*
X161315120Y-100320535D01*
X161468005Y-100091727D01*
X161573314Y-99837490D01*
X161627000Y-99567592D01*
X161627000Y-99292408D01*
X161573314Y-99022510D01*
X161468005Y-98768273D01*
X161315120Y-98539465D01*
X161120535Y-98344880D01*
X160891727Y-98191995D01*
X160814485Y-98160000D01*
X160891727Y-98128005D01*
X161120535Y-97975120D01*
X161315120Y-97780535D01*
X161468005Y-97551727D01*
X161573314Y-97297490D01*
X161627000Y-97027592D01*
X161627000Y-96752408D01*
X161573314Y-96482510D01*
X161468005Y-96228273D01*
X161315120Y-95999465D01*
X161120535Y-95804880D01*
X160891727Y-95651995D01*
X160814485Y-95620000D01*
X160891727Y-95588005D01*
X161120535Y-95435120D01*
X161315120Y-95240535D01*
X161468005Y-95011727D01*
X161573314Y-94757490D01*
X161627000Y-94487592D01*
X161627000Y-94212408D01*
X161573314Y-93942510D01*
X161468005Y-93688273D01*
X161315120Y-93459465D01*
X161120535Y-93264880D01*
X160891727Y-93111995D01*
X160814485Y-93080000D01*
X160891727Y-93048005D01*
X161120535Y-92895120D01*
X161315120Y-92700535D01*
X161428377Y-92531034D01*
X172263325Y-92531034D01*
X172263325Y-92956516D01*
X172346333Y-93373824D01*
X172509158Y-93766919D01*
X172745544Y-94120695D01*
X173046405Y-94421556D01*
X173400181Y-94657942D01*
X173793276Y-94820767D01*
X174210584Y-94903775D01*
X174636066Y-94903775D01*
X175053374Y-94820767D01*
X175446469Y-94657942D01*
X175800245Y-94421556D01*
X176101106Y-94120695D01*
X176337492Y-93766919D01*
X176500317Y-93373824D01*
X176583325Y-92956516D01*
X176583325Y-92531034D01*
X176500317Y-92113726D01*
X176337492Y-91720631D01*
X176101106Y-91366855D01*
X175800245Y-91065994D01*
X175446469Y-90829608D01*
X175053374Y-90666783D01*
X174636066Y-90583775D01*
X174210584Y-90583775D01*
X173793276Y-90666783D01*
X173400181Y-90829608D01*
X173046405Y-91065994D01*
X172745544Y-91366855D01*
X172509158Y-91720631D01*
X172346333Y-92113726D01*
X172263325Y-92531034D01*
X161428377Y-92531034D01*
X161468005Y-92471727D01*
X161573314Y-92217490D01*
X161627000Y-91947592D01*
X161627000Y-91672408D01*
X161573314Y-91402510D01*
X161468005Y-91148273D01*
X161315120Y-90919465D01*
X161120535Y-90724880D01*
X160891727Y-90571995D01*
X160814485Y-90540000D01*
X160891727Y-90508005D01*
X161120535Y-90355120D01*
X161315120Y-90160535D01*
X161468005Y-89931727D01*
X161573314Y-89677490D01*
X161627000Y-89407592D01*
X161627000Y-89132408D01*
X161573314Y-88862510D01*
X161468005Y-88608273D01*
X161315120Y-88379465D01*
X161120535Y-88184880D01*
X160891727Y-88031995D01*
X160814485Y-88000000D01*
X160891727Y-87968005D01*
X161120535Y-87815120D01*
X161315120Y-87620535D01*
X161468005Y-87391727D01*
X161573314Y-87137490D01*
X161627000Y-86867592D01*
X161627000Y-86804495D01*
X185515000Y-86804495D01*
X185515000Y-87195505D01*
X185591282Y-87579003D01*
X185740915Y-87940250D01*
X185958149Y-88265364D01*
X186234636Y-88541851D01*
X186559750Y-88759085D01*
X186920997Y-88908718D01*
X187304495Y-88985000D01*
X187695505Y-88985000D01*
X188079003Y-88908718D01*
X188440250Y-88759085D01*
X188765364Y-88541851D01*
X189041851Y-88265364D01*
X189259085Y-87940250D01*
X189344995Y-87732844D01*
X218139446Y-87732844D01*
X218139446Y-88025364D01*
X218196514Y-88312262D01*
X218308456Y-88582515D01*
X218470971Y-88825736D01*
X218677814Y-89032579D01*
X218921035Y-89195094D01*
X219191288Y-89307036D01*
X219478186Y-89364104D01*
X219770706Y-89364104D01*
X220057604Y-89307036D01*
X220327857Y-89195094D01*
X220571078Y-89032579D01*
X220777921Y-88825736D01*
X220940436Y-88582515D01*
X221052378Y-88312262D01*
X221109446Y-88025364D01*
X221109446Y-87732844D01*
X221052378Y-87445946D01*
X220940436Y-87175693D01*
X220777921Y-86932472D01*
X220625514Y-86780065D01*
X220699852Y-86765278D01*
X221015602Y-86634490D01*
X221299769Y-86444616D01*
X221439606Y-86304779D01*
X221896349Y-86304779D01*
X221896349Y-86823829D01*
X221997610Y-87332905D01*
X222196242Y-87812445D01*
X222484611Y-88244019D01*
X222851634Y-88611042D01*
X223283208Y-88899411D01*
X223762748Y-89098043D01*
X224271824Y-89199304D01*
X224790874Y-89199304D01*
X225299950Y-89098043D01*
X225779490Y-88899411D01*
X226211064Y-88611042D01*
X226578087Y-88244019D01*
X226866456Y-87812445D01*
X227065088Y-87332905D01*
X227166349Y-86823829D01*
X227166349Y-86304779D01*
X227065088Y-85795703D01*
X226866456Y-85316163D01*
X226724188Y-85103243D01*
X227953252Y-85103243D01*
X227953252Y-85395763D01*
X228010320Y-85682661D01*
X228122262Y-85952914D01*
X228284777Y-86196135D01*
X228491620Y-86402978D01*
X228734841Y-86565493D01*
X229005094Y-86677435D01*
X229291992Y-86734503D01*
X229584512Y-86734503D01*
X229871410Y-86677435D01*
X230141663Y-86565493D01*
X230384884Y-86402978D01*
X230591727Y-86196135D01*
X230754242Y-85952914D01*
X230866184Y-85682661D01*
X230923252Y-85395763D01*
X230923252Y-85103243D01*
X230866184Y-84816345D01*
X230754242Y-84546092D01*
X230591727Y-84302871D01*
X230384884Y-84096028D01*
X230141663Y-83933513D01*
X229871410Y-83821571D01*
X229584512Y-83764503D01*
X229291992Y-83764503D01*
X229005094Y-83821571D01*
X228734841Y-83933513D01*
X228491620Y-84096028D01*
X228284777Y-84302871D01*
X228122262Y-84546092D01*
X228010320Y-84816345D01*
X227953252Y-85103243D01*
X226724188Y-85103243D01*
X226578087Y-84884589D01*
X226211064Y-84517566D01*
X225779490Y-84229197D01*
X225299950Y-84030565D01*
X224790874Y-83929304D01*
X224271824Y-83929304D01*
X223762748Y-84030565D01*
X223283208Y-84229197D01*
X222851634Y-84517566D01*
X222484611Y-84884589D01*
X222196242Y-85316163D01*
X221997610Y-85795703D01*
X221896349Y-86304779D01*
X221439606Y-86304779D01*
X221541434Y-86202951D01*
X221731308Y-85918784D01*
X221862096Y-85603034D01*
X221928771Y-85267836D01*
X221928771Y-84926070D01*
X221862096Y-84590872D01*
X221731308Y-84275122D01*
X221541434Y-83990955D01*
X221299769Y-83749290D01*
X221015602Y-83559416D01*
X220699852Y-83428628D01*
X220364654Y-83361953D01*
X220022888Y-83361953D01*
X219687690Y-83428628D01*
X219371940Y-83559416D01*
X219087773Y-83749290D01*
X218846108Y-83990955D01*
X218656234Y-84275122D01*
X218525446Y-84590872D01*
X218458771Y-84926070D01*
X218458771Y-85267836D01*
X218525446Y-85603034D01*
X218656234Y-85918784D01*
X218846108Y-86202951D01*
X219087773Y-86444616D01*
X219133443Y-86475132D01*
X218921035Y-86563114D01*
X218677814Y-86725629D01*
X218470971Y-86932472D01*
X218308456Y-87175693D01*
X218196514Y-87445946D01*
X218139446Y-87732844D01*
X189344995Y-87732844D01*
X189408718Y-87579003D01*
X189485000Y-87195505D01*
X189485000Y-86804495D01*
X189408718Y-86420997D01*
X189259085Y-86059750D01*
X189041851Y-85734636D01*
X188765364Y-85458149D01*
X188440250Y-85240915D01*
X188079003Y-85091282D01*
X187695505Y-85015000D01*
X187304495Y-85015000D01*
X186920997Y-85091282D01*
X186559750Y-85240915D01*
X186234636Y-85458149D01*
X185958149Y-85734636D01*
X185740915Y-86059750D01*
X185591282Y-86420997D01*
X185515000Y-86804495D01*
X161627000Y-86804495D01*
X161627000Y-86592408D01*
X161573314Y-86322510D01*
X161468005Y-86068273D01*
X161315120Y-85839465D01*
X161120535Y-85644880D01*
X160891727Y-85491995D01*
X160820057Y-85462308D01*
X160833023Y-85457636D01*
X160948980Y-85395656D01*
X161015960Y-85155565D01*
X160230000Y-84369605D01*
X160215858Y-84383748D01*
X160036253Y-84204143D01*
X160050395Y-84190000D01*
X160409605Y-84190000D01*
X161195565Y-84975960D01*
X161435656Y-84908980D01*
X161552756Y-84659952D01*
X161619023Y-84392865D01*
X161631910Y-84117983D01*
X161590922Y-83845867D01*
X161497636Y-83586977D01*
X161435656Y-83471020D01*
X161195565Y-83404040D01*
X160409605Y-84190000D01*
X160050395Y-84190000D01*
X160036253Y-84175858D01*
X160215858Y-83996253D01*
X160230000Y-84010395D01*
X161015960Y-83224435D01*
X160948980Y-82984344D01*
X160818356Y-82922921D01*
X160833023Y-82917636D01*
X160948980Y-82855656D01*
X161015960Y-82615565D01*
X160230000Y-81829605D01*
X160215858Y-81843748D01*
X160036253Y-81664143D01*
X160050395Y-81650000D01*
X160409605Y-81650000D01*
X161195565Y-82435960D01*
X161211806Y-82431429D01*
X224990211Y-82431429D01*
X225165448Y-82668788D01*
X225500707Y-82735156D01*
X225842472Y-82734843D01*
X226177609Y-82667861D01*
X226493239Y-82536784D01*
X226777233Y-82346649D01*
X226941349Y-82192937D01*
X226974429Y-81899759D01*
X225716485Y-81173485D01*
X224990211Y-82431429D01*
X161211806Y-82431429D01*
X161435656Y-82368980D01*
X161552756Y-82119952D01*
X161619023Y-81852865D01*
X161631910Y-81577983D01*
X161590922Y-81305867D01*
X161497636Y-81046977D01*
X161435656Y-80931020D01*
X161195565Y-80864040D01*
X160409605Y-81650000D01*
X160050395Y-81650000D01*
X160036253Y-81635858D01*
X160215858Y-81456253D01*
X160230000Y-81470395D01*
X160869688Y-80830707D01*
X223934844Y-80830707D01*
X223935157Y-81172472D01*
X224002139Y-81507609D01*
X224133216Y-81823239D01*
X224323351Y-82107233D01*
X224477063Y-82271349D01*
X224770241Y-82304429D01*
X225496515Y-81046485D01*
X225335487Y-80953515D01*
X225843485Y-80953515D01*
X227101429Y-81679789D01*
X227338788Y-81504552D01*
X227374717Y-81323055D01*
X272325309Y-81323055D01*
X272325309Y-81842105D01*
X272426570Y-82351181D01*
X272625202Y-82830721D01*
X272913571Y-83262295D01*
X273280594Y-83629318D01*
X273712168Y-83917687D01*
X274191708Y-84116319D01*
X274700784Y-84217580D01*
X275219834Y-84217580D01*
X275728910Y-84116319D01*
X276208450Y-83917687D01*
X276640024Y-83629318D01*
X277007047Y-83262295D01*
X277295416Y-82830721D01*
X277494048Y-82351181D01*
X277595309Y-81842105D01*
X277595309Y-81323055D01*
X277494048Y-80813979D01*
X277295416Y-80334439D01*
X277007047Y-79902865D01*
X276808677Y-79704495D01*
X281715000Y-79704495D01*
X281715000Y-80095505D01*
X281791282Y-80479003D01*
X281940915Y-80840250D01*
X282158149Y-81165364D01*
X282434636Y-81441851D01*
X282759750Y-81659085D01*
X283120997Y-81808718D01*
X283504495Y-81885000D01*
X283895505Y-81885000D01*
X284279003Y-81808718D01*
X284640250Y-81659085D01*
X284965364Y-81441851D01*
X285241851Y-81165364D01*
X285459085Y-80840250D01*
X285608718Y-80479003D01*
X285685000Y-80095505D01*
X285685000Y-79704495D01*
X285608718Y-79320997D01*
X285459085Y-78959750D01*
X285241851Y-78634636D01*
X284965364Y-78358149D01*
X284640250Y-78140915D01*
X284279003Y-77991282D01*
X283895505Y-77915000D01*
X283504495Y-77915000D01*
X283120997Y-77991282D01*
X282759750Y-78140915D01*
X282434636Y-78358149D01*
X282158149Y-78634636D01*
X281940915Y-78959750D01*
X281791282Y-79320997D01*
X281715000Y-79704495D01*
X276808677Y-79704495D01*
X276640024Y-79535842D01*
X276208450Y-79247473D01*
X275728910Y-79048841D01*
X275219834Y-78947580D01*
X274700784Y-78947580D01*
X274191708Y-79048841D01*
X273712168Y-79247473D01*
X273280594Y-79535842D01*
X272913571Y-79902865D01*
X272625202Y-80334439D01*
X272426570Y-80813979D01*
X272325309Y-81323055D01*
X227374717Y-81323055D01*
X227405156Y-81169293D01*
X227404843Y-80827528D01*
X227337861Y-80492391D01*
X227206784Y-80176761D01*
X227016649Y-79892767D01*
X226862937Y-79728651D01*
X226569759Y-79695571D01*
X225843485Y-80953515D01*
X225335487Y-80953515D01*
X224238571Y-80320211D01*
X224001212Y-80495448D01*
X223934844Y-80830707D01*
X160869688Y-80830707D01*
X161015960Y-80684435D01*
X160948980Y-80444344D01*
X160813240Y-80380515D01*
X160891727Y-80348005D01*
X161120535Y-80195120D01*
X161215414Y-80100241D01*
X224365571Y-80100241D01*
X225623515Y-80826515D01*
X226349789Y-79568571D01*
X226174552Y-79331212D01*
X225839293Y-79264844D01*
X225497528Y-79265157D01*
X225162391Y-79332139D01*
X224846761Y-79463216D01*
X224562767Y-79653351D01*
X224398651Y-79807063D01*
X224365571Y-80100241D01*
X161215414Y-80100241D01*
X161315120Y-80000535D01*
X161468005Y-79771727D01*
X161573314Y-79517490D01*
X161627000Y-79247592D01*
X161627000Y-78972408D01*
X161573314Y-78702510D01*
X161468005Y-78448273D01*
X161315120Y-78219465D01*
X161120535Y-78024880D01*
X160891727Y-77871995D01*
X160637490Y-77766686D01*
X160367592Y-77713000D01*
X160092408Y-77713000D01*
X159822510Y-77766686D01*
X159568273Y-77871995D01*
X159460000Y-77944341D01*
X159460000Y-77067581D01*
X159457251Y-77039671D01*
X159457272Y-77036693D01*
X159456373Y-77027522D01*
X159451311Y-76979360D01*
X159450450Y-76970617D01*
X159450362Y-76970325D01*
X159446173Y-76930473D01*
X159434140Y-76871854D01*
X159422936Y-76813116D01*
X159420272Y-76804294D01*
X159391416Y-76711075D01*
X159368238Y-76655937D01*
X159345825Y-76600463D01*
X159341498Y-76592327D01*
X159295085Y-76506489D01*
X159261645Y-76456913D01*
X159228881Y-76406844D01*
X159223057Y-76399703D01*
X159160855Y-76324514D01*
X159118406Y-76282361D01*
X159076561Y-76239629D01*
X159069460Y-76233755D01*
X158993839Y-76172079D01*
X158944034Y-76138988D01*
X158894650Y-76105174D01*
X158886544Y-76100792D01*
X158800383Y-76054980D01*
X158745091Y-76032191D01*
X158690102Y-76008622D01*
X158681299Y-76005897D01*
X158587881Y-75977692D01*
X158529174Y-75966067D01*
X158470684Y-75953635D01*
X158461530Y-75952673D01*
X158461524Y-75952672D01*
X158461519Y-75952672D01*
X158364402Y-75943150D01*
X158332419Y-75940000D01*
X139267581Y-75940000D01*
X139239671Y-75942749D01*
X139236693Y-75942728D01*
X139227522Y-75943627D01*
X139179360Y-75948689D01*
X139170617Y-75949550D01*
X139170325Y-75949638D01*
X139130473Y-75953827D01*
X139071854Y-75965860D01*
X139013116Y-75977064D01*
X139004294Y-75979728D01*
X138911075Y-76008584D01*
X138855937Y-76031762D01*
X138800463Y-76054175D01*
X138792334Y-76058498D01*
X138792330Y-76058500D01*
X138792327Y-76058502D01*
X138706489Y-76104915D01*
X138656913Y-76138355D01*
X138606844Y-76171119D01*
X138599703Y-76176943D01*
X138524514Y-76239145D01*
X138482361Y-76281594D01*
X138439629Y-76323439D01*
X138433755Y-76330540D01*
X138372079Y-76406161D01*
X138338988Y-76455966D01*
X138305174Y-76505350D01*
X138300792Y-76513456D01*
X138254980Y-76599617D01*
X138232191Y-76654909D01*
X138208622Y-76709898D01*
X138205897Y-76718701D01*
X138177692Y-76812119D01*
X138166067Y-76870826D01*
X138153635Y-76929316D01*
X138152673Y-76938470D01*
X138152672Y-76938476D01*
X138152672Y-76938481D01*
X138143150Y-77035598D01*
X138143150Y-77035608D01*
X138140001Y-77067581D01*
X138140001Y-77944342D01*
X138031727Y-77871995D01*
X137777490Y-77766686D01*
X137507592Y-77713000D01*
X137232408Y-77713000D01*
X136962510Y-77766686D01*
X136708273Y-77871995D01*
X136479465Y-78024880D01*
X136284880Y-78219465D01*
X136131995Y-78448273D01*
X136026686Y-78702510D01*
X135973000Y-78972408D01*
X135973000Y-79247592D01*
X136026686Y-79517490D01*
X136131995Y-79771727D01*
X136284880Y-80000535D01*
X136479465Y-80195120D01*
X136708273Y-80348005D01*
X136779943Y-80377692D01*
X136766977Y-80382364D01*
X136651020Y-80444344D01*
X136584040Y-80684435D01*
X137370000Y-81470395D01*
X137384143Y-81456253D01*
X137563748Y-81635858D01*
X137549605Y-81650000D01*
X137563748Y-81664143D01*
X137384143Y-81843748D01*
X137370000Y-81829605D01*
X136584040Y-82615565D01*
X136651020Y-82855656D01*
X136786760Y-82919485D01*
X136708273Y-82951995D01*
X136479465Y-83104880D01*
X136284880Y-83299465D01*
X136131995Y-83528273D01*
X136026686Y-83782510D01*
X135973000Y-84052408D01*
X135973000Y-84327592D01*
X136026686Y-84597490D01*
X136131995Y-84851727D01*
X136284880Y-85080535D01*
X136479465Y-85275120D01*
X136708273Y-85428005D01*
X136785515Y-85460000D01*
X136708273Y-85491995D01*
X136479465Y-85644880D01*
X136284880Y-85839465D01*
X136131995Y-86068273D01*
X136026686Y-86322510D01*
X135973000Y-86592408D01*
X135973000Y-86867592D01*
X136026686Y-87137490D01*
X136131995Y-87391727D01*
X136284880Y-87620535D01*
X136479465Y-87815120D01*
X136708273Y-87968005D01*
X136785515Y-88000000D01*
X136708273Y-88031995D01*
X136479465Y-88184880D01*
X136284880Y-88379465D01*
X136131995Y-88608273D01*
X136026686Y-88862510D01*
X135973000Y-89132408D01*
X135973000Y-89407592D01*
X136026686Y-89677490D01*
X136131995Y-89931727D01*
X136284880Y-90160535D01*
X136479465Y-90355120D01*
X136708273Y-90508005D01*
X136785515Y-90540000D01*
X136708273Y-90571995D01*
X136479465Y-90724880D01*
X136284880Y-90919465D01*
X136131995Y-91148273D01*
X136026686Y-91402510D01*
X135973000Y-91672408D01*
X135973000Y-91947592D01*
X136026686Y-92217490D01*
X136131995Y-92471727D01*
X136284880Y-92700535D01*
X136479465Y-92895120D01*
X136708273Y-93048005D01*
X136785515Y-93080000D01*
X136708273Y-93111995D01*
X136479465Y-93264880D01*
X136284880Y-93459465D01*
X136131995Y-93688273D01*
X136026686Y-93942510D01*
X135973000Y-94212408D01*
X135973000Y-94487592D01*
X136026686Y-94757490D01*
X136131995Y-95011727D01*
X136284880Y-95240535D01*
X136479465Y-95435120D01*
X136708273Y-95588005D01*
X136785515Y-95620000D01*
X136708273Y-95651995D01*
X136479465Y-95804880D01*
X136284880Y-95999465D01*
X136131995Y-96228273D01*
X136026686Y-96482510D01*
X135973000Y-96752408D01*
X135973000Y-97027592D01*
X136026686Y-97297490D01*
X136131995Y-97551727D01*
X136284880Y-97780535D01*
X136479465Y-97975120D01*
X136708273Y-98128005D01*
X136785515Y-98160000D01*
X136708273Y-98191995D01*
X136479465Y-98344880D01*
X136284880Y-98539465D01*
X136131995Y-98768273D01*
X136026686Y-99022510D01*
X135973000Y-99292408D01*
X135973000Y-99567592D01*
X136026686Y-99837490D01*
X136131995Y-100091727D01*
X136284880Y-100320535D01*
X136479465Y-100515120D01*
X136708273Y-100668005D01*
X136785515Y-100700000D01*
X136708273Y-100731995D01*
X136479465Y-100884880D01*
X136284880Y-101079465D01*
X136131995Y-101308273D01*
X136026686Y-101562510D01*
X135973000Y-101832408D01*
X135973000Y-102107592D01*
X136026686Y-102377490D01*
X136131995Y-102631727D01*
X136284880Y-102860535D01*
X136479465Y-103055120D01*
X136708273Y-103208005D01*
X136785515Y-103240000D01*
X136708273Y-103271995D01*
X136479465Y-103424880D01*
X136284880Y-103619465D01*
X136131995Y-103848273D01*
X136026686Y-104102510D01*
X135973000Y-104372408D01*
X135973000Y-104647592D01*
X136026686Y-104917490D01*
X136131995Y-105171727D01*
X136284880Y-105400535D01*
X136479465Y-105595120D01*
X136708273Y-105748005D01*
X136785515Y-105780000D01*
X136708273Y-105811995D01*
X136479465Y-105964880D01*
X136284880Y-106159465D01*
X136131995Y-106388273D01*
X136026686Y-106642510D01*
X135973000Y-106912408D01*
X135973000Y-107187592D01*
X136026686Y-107457490D01*
X136131995Y-107711727D01*
X136284880Y-107940535D01*
X136479465Y-108135120D01*
X136708273Y-108288005D01*
X136962510Y-108393314D01*
X137232408Y-108447000D01*
X137507592Y-108447000D01*
X137777490Y-108393314D01*
X138031727Y-108288005D01*
X138147630Y-108210561D01*
X138148691Y-108220663D01*
X138149550Y-108229382D01*
X138149638Y-108229673D01*
X138153827Y-108269527D01*
X138165861Y-108328152D01*
X138177064Y-108386884D01*
X138179728Y-108395706D01*
X138208584Y-108488925D01*
X138231767Y-108544075D01*
X138243453Y-108573000D01*
X135400000Y-108573000D01*
X135375224Y-108575440D01*
X135351399Y-108582667D01*
X135329443Y-108594403D01*
X135310197Y-108610197D01*
X135294403Y-108629443D01*
X135282667Y-108651399D01*
X135275440Y-108675224D01*
X135273000Y-108700000D01*
X135273000Y-112066078D01*
X131325785Y-111918437D01*
X124466904Y-111517900D01*
X117617947Y-110973813D01*
X110781865Y-110286410D01*
X103961678Y-109455992D01*
X97160358Y-108482923D01*
X90380951Y-107367639D01*
X89427266Y-107190159D01*
X116460370Y-107190159D01*
X116460370Y-107709209D01*
X116561631Y-108218285D01*
X116760263Y-108697825D01*
X117048632Y-109129399D01*
X117415655Y-109496422D01*
X117847229Y-109784791D01*
X118326769Y-109983423D01*
X118835845Y-110084684D01*
X119354895Y-110084684D01*
X119863971Y-109983423D01*
X120343511Y-109784791D01*
X120775085Y-109496422D01*
X121142108Y-109129399D01*
X121430477Y-108697825D01*
X121629109Y-108218285D01*
X121730370Y-107709209D01*
X121730370Y-107190159D01*
X121629109Y-106681083D01*
X121430477Y-106201543D01*
X121142108Y-105769969D01*
X120775085Y-105402946D01*
X120343511Y-105114577D01*
X119863971Y-104915945D01*
X119354895Y-104814684D01*
X118835845Y-104814684D01*
X118326769Y-104915945D01*
X117847229Y-105114577D01*
X117415655Y-105402946D01*
X117048632Y-105769969D01*
X116760263Y-106201543D01*
X116561631Y-106681083D01*
X116460370Y-107190159D01*
X89427266Y-107190159D01*
X83626304Y-106110606D01*
X76899526Y-104712402D01*
X70203502Y-103173630D01*
X63541207Y-101494974D01*
X56915448Y-99677138D01*
X50329279Y-97720963D01*
X43785473Y-95627269D01*
X37286977Y-93397003D01*
X34885628Y-92516233D01*
X120879772Y-92516233D01*
X120879772Y-92941715D01*
X120962780Y-93359023D01*
X121125605Y-93752118D01*
X121361991Y-94105894D01*
X121662852Y-94406755D01*
X122016628Y-94643141D01*
X122409723Y-94805966D01*
X122827031Y-94888974D01*
X123252513Y-94888974D01*
X123669821Y-94805966D01*
X124062916Y-94643141D01*
X124416692Y-94406755D01*
X124717553Y-94105894D01*
X124953939Y-93752118D01*
X125116764Y-93359023D01*
X125199772Y-92941715D01*
X125199772Y-92516233D01*
X125116764Y-92098925D01*
X124953939Y-91705830D01*
X124717553Y-91352054D01*
X124416692Y-91051193D01*
X124062916Y-90814807D01*
X123669821Y-90651982D01*
X123252513Y-90568974D01*
X122827031Y-90568974D01*
X122409723Y-90651982D01*
X122016628Y-90814807D01*
X121662852Y-91051193D01*
X121361991Y-91352054D01*
X121125605Y-91705830D01*
X120962780Y-92098925D01*
X120879772Y-92516233D01*
X34885628Y-92516233D01*
X30836620Y-91031133D01*
X24437219Y-88530694D01*
X18091195Y-85896622D01*
X16248029Y-85088442D01*
X66539844Y-85088442D01*
X66539844Y-85380962D01*
X66596912Y-85667860D01*
X66708854Y-85938113D01*
X66871369Y-86181334D01*
X67078212Y-86388177D01*
X67321433Y-86550692D01*
X67591686Y-86662634D01*
X67878584Y-86719702D01*
X68171104Y-86719702D01*
X68458002Y-86662634D01*
X68728255Y-86550692D01*
X68971476Y-86388177D01*
X69069675Y-86289978D01*
X70296748Y-86289978D01*
X70296748Y-86809028D01*
X70398009Y-87318104D01*
X70596641Y-87797644D01*
X70885010Y-88229218D01*
X71252033Y-88596241D01*
X71683607Y-88884610D01*
X72163147Y-89083242D01*
X72672223Y-89184503D01*
X73191273Y-89184503D01*
X73700349Y-89083242D01*
X74179889Y-88884610D01*
X74611463Y-88596241D01*
X74978486Y-88229218D01*
X75266855Y-87797644D01*
X75299826Y-87718044D01*
X76353651Y-87718044D01*
X76353651Y-88010564D01*
X76410719Y-88297462D01*
X76522661Y-88567715D01*
X76685176Y-88810936D01*
X76892019Y-89017779D01*
X77135240Y-89180294D01*
X77405493Y-89292236D01*
X77692391Y-89349304D01*
X77984911Y-89349304D01*
X78271809Y-89292236D01*
X78542062Y-89180294D01*
X78785283Y-89017779D01*
X78992126Y-88810936D01*
X79154641Y-88567715D01*
X79266583Y-88297462D01*
X79323651Y-88010564D01*
X79323651Y-87718044D01*
X79266583Y-87431146D01*
X79154641Y-87160893D01*
X78992126Y-86917672D01*
X78785283Y-86710829D01*
X78542062Y-86548314D01*
X78271809Y-86436372D01*
X78111554Y-86404495D01*
X106615000Y-86404495D01*
X106615000Y-86795505D01*
X106691282Y-87179003D01*
X106840915Y-87540250D01*
X107058149Y-87865364D01*
X107334636Y-88141851D01*
X107659750Y-88359085D01*
X108020997Y-88508718D01*
X108404495Y-88585000D01*
X108795505Y-88585000D01*
X109179003Y-88508718D01*
X109540250Y-88359085D01*
X109865364Y-88141851D01*
X110141851Y-87865364D01*
X110359085Y-87540250D01*
X110508718Y-87179003D01*
X110585000Y-86795505D01*
X110585000Y-86404495D01*
X110508718Y-86020997D01*
X110359085Y-85659750D01*
X110141851Y-85334636D01*
X109865364Y-85058149D01*
X109540250Y-84840915D01*
X109179003Y-84691282D01*
X108795505Y-84615000D01*
X108404495Y-84615000D01*
X108020997Y-84691282D01*
X107659750Y-84840915D01*
X107334636Y-85058149D01*
X107058149Y-85334636D01*
X106840915Y-85659750D01*
X106691282Y-86020997D01*
X106615000Y-86404495D01*
X78111554Y-86404495D01*
X77984911Y-86379304D01*
X77692391Y-86379304D01*
X77405493Y-86436372D01*
X77135240Y-86548314D01*
X76892019Y-86710829D01*
X76685176Y-86917672D01*
X76522661Y-87160893D01*
X76410719Y-87431146D01*
X76353651Y-87718044D01*
X75299826Y-87718044D01*
X75465487Y-87318104D01*
X75566748Y-86809028D01*
X75566748Y-86289978D01*
X75465487Y-85780902D01*
X75266855Y-85301362D01*
X74978486Y-84869788D01*
X74611463Y-84502765D01*
X74179889Y-84214396D01*
X73700349Y-84015764D01*
X73191273Y-83914503D01*
X72672223Y-83914503D01*
X72163147Y-84015764D01*
X71683607Y-84214396D01*
X71252033Y-84502765D01*
X70885010Y-84869788D01*
X70596641Y-85301362D01*
X70398009Y-85780902D01*
X70296748Y-86289978D01*
X69069675Y-86289978D01*
X69178319Y-86181334D01*
X69340834Y-85938113D01*
X69452776Y-85667860D01*
X69509844Y-85380962D01*
X69509844Y-85088442D01*
X69452776Y-84801544D01*
X69445879Y-84784893D01*
X69514643Y-84808165D01*
X69853525Y-84852464D01*
X70194538Y-84829800D01*
X70413523Y-84778739D01*
X70588760Y-84541380D01*
X69881742Y-83316788D01*
X69894830Y-83303700D01*
X69747566Y-83156436D01*
X70082456Y-83156436D01*
X70808730Y-84414380D01*
X71101908Y-84381300D01*
X71327014Y-84124141D01*
X71497625Y-83828007D01*
X71607185Y-83504279D01*
X71651484Y-83165397D01*
X71628820Y-82824384D01*
X71577759Y-82605399D01*
X71340400Y-82430162D01*
X70082456Y-83156436D01*
X69747566Y-83156436D01*
X69715222Y-83124092D01*
X69137044Y-83702270D01*
X68743969Y-83929212D01*
X68728255Y-83918712D01*
X68458002Y-83806770D01*
X68171104Y-83749702D01*
X67878584Y-83749702D01*
X67591686Y-83806770D01*
X67321433Y-83918712D01*
X67078212Y-84081227D01*
X66871369Y-84288070D01*
X66708854Y-84531291D01*
X66596912Y-84801544D01*
X66539844Y-85088442D01*
X16248029Y-85088442D01*
X12538069Y-83461723D01*
X12239322Y-83262233D01*
X11989706Y-83013197D01*
X11793217Y-82720426D01*
X11657336Y-82395062D01*
X11587240Y-82049501D01*
X11585598Y-81696907D01*
X11642083Y-81404495D01*
X11915000Y-81404495D01*
X11915000Y-81795505D01*
X11991282Y-82179003D01*
X12140915Y-82540250D01*
X12358149Y-82865364D01*
X12634636Y-83141851D01*
X12959750Y-83359085D01*
X13320997Y-83508718D01*
X13704495Y-83585000D01*
X14095505Y-83585000D01*
X14479003Y-83508718D01*
X14840250Y-83359085D01*
X15165364Y-83141851D01*
X15441851Y-82865364D01*
X15659085Y-82540250D01*
X15808718Y-82179003D01*
X15885000Y-81795505D01*
X15885000Y-81404495D01*
X15865857Y-81308254D01*
X19867787Y-81308254D01*
X19867787Y-81827304D01*
X19969048Y-82336380D01*
X20167680Y-82815920D01*
X20456049Y-83247494D01*
X20823072Y-83614517D01*
X21254646Y-83902886D01*
X21734186Y-84101518D01*
X22243262Y-84202779D01*
X22762312Y-84202779D01*
X23271388Y-84101518D01*
X23750928Y-83902886D01*
X24182502Y-83614517D01*
X24549525Y-83247494D01*
X24678476Y-83054505D01*
X68166458Y-83054505D01*
X68189122Y-83395518D01*
X68240183Y-83614503D01*
X68477542Y-83789740D01*
X69735486Y-83063466D01*
X69009212Y-81805522D01*
X68716034Y-81838602D01*
X68490928Y-82095761D01*
X68320317Y-82391895D01*
X68210757Y-82715623D01*
X68166458Y-83054505D01*
X24678476Y-83054505D01*
X24837894Y-82815920D01*
X25036526Y-82336380D01*
X25137787Y-81827304D01*
X25137787Y-81678522D01*
X69229182Y-81678522D01*
X69955456Y-82936466D01*
X71213400Y-82210192D01*
X71204253Y-82129117D01*
X74965000Y-82129117D01*
X74965000Y-82470883D01*
X75031675Y-82806081D01*
X75162463Y-83121831D01*
X75352337Y-83405998D01*
X75594002Y-83647663D01*
X75878169Y-83837537D01*
X76193919Y-83968325D01*
X76529117Y-84035000D01*
X76870883Y-84035000D01*
X77206081Y-83968325D01*
X77521831Y-83837537D01*
X77805998Y-83647663D01*
X78047663Y-83405998D01*
X78237537Y-83121831D01*
X78368325Y-82806081D01*
X78435000Y-82470883D01*
X78435000Y-82129117D01*
X78368325Y-81793919D01*
X78338543Y-81722017D01*
X135968090Y-81722017D01*
X136009078Y-81994133D01*
X136102364Y-82253023D01*
X136164344Y-82368980D01*
X136404435Y-82435960D01*
X137190395Y-81650000D01*
X136404435Y-80864040D01*
X136164344Y-80931020D01*
X136047244Y-81180048D01*
X135980977Y-81447135D01*
X135968090Y-81722017D01*
X78338543Y-81722017D01*
X78237537Y-81478169D01*
X78047663Y-81194002D01*
X77805998Y-80952337D01*
X77521831Y-80762463D01*
X77206081Y-80631675D01*
X76870883Y-80565000D01*
X76529117Y-80565000D01*
X76193919Y-80631675D01*
X75878169Y-80762463D01*
X75594002Y-80952337D01*
X75352337Y-81194002D01*
X75162463Y-81478169D01*
X75031675Y-81793919D01*
X74965000Y-82129117D01*
X71204253Y-82129117D01*
X71180320Y-81917014D01*
X70923161Y-81691908D01*
X70627027Y-81521297D01*
X70303299Y-81411737D01*
X69964417Y-81367438D01*
X69623404Y-81390102D01*
X69404419Y-81441163D01*
X69229182Y-81678522D01*
X25137787Y-81678522D01*
X25137787Y-81308254D01*
X25036526Y-80799178D01*
X24837894Y-80319638D01*
X24549525Y-79888064D01*
X24182502Y-79521041D01*
X23750928Y-79232672D01*
X23271388Y-79034040D01*
X22762312Y-78932779D01*
X22243262Y-78932779D01*
X21734186Y-79034040D01*
X21254646Y-79232672D01*
X20823072Y-79521041D01*
X20456049Y-79888064D01*
X20167680Y-80319638D01*
X19969048Y-80799178D01*
X19867787Y-81308254D01*
X15865857Y-81308254D01*
X15808718Y-81020997D01*
X15659085Y-80659750D01*
X15441851Y-80334636D01*
X15165364Y-80058149D01*
X14840250Y-79840915D01*
X14479003Y-79691282D01*
X14095505Y-79615000D01*
X13704495Y-79615000D01*
X13320997Y-79691282D01*
X12959750Y-79840915D01*
X12634636Y-80058149D01*
X12358149Y-80334636D01*
X12140915Y-80659750D01*
X11991282Y-81020997D01*
X11915000Y-81404495D01*
X11642083Y-81404495D01*
X11655973Y-81332593D01*
X11706905Y-81184273D01*
X11716067Y-81158960D01*
X14592824Y-69850000D01*
X36711928Y-69850000D01*
X36724188Y-69974482D01*
X36760498Y-70094180D01*
X36819463Y-70204494D01*
X36898815Y-70301185D01*
X36995506Y-70380537D01*
X37105820Y-70439502D01*
X37225518Y-70475812D01*
X37350000Y-70488072D01*
X37914250Y-70485000D01*
X38073000Y-70326250D01*
X38073000Y-69127000D01*
X38327000Y-69127000D01*
X38327000Y-70326250D01*
X38485750Y-70485000D01*
X39050000Y-70488072D01*
X39174482Y-70475812D01*
X39294180Y-70439502D01*
X39404494Y-70380537D01*
X39501185Y-70301185D01*
X39580537Y-70204494D01*
X39639502Y-70094180D01*
X39675812Y-69974482D01*
X39688072Y-69850000D01*
X39685000Y-69285750D01*
X39526250Y-69127000D01*
X38327000Y-69127000D01*
X38073000Y-69127000D01*
X36873750Y-69127000D01*
X36715000Y-69285750D01*
X36711928Y-69850000D01*
X14592824Y-69850000D01*
X15410823Y-66634329D01*
X24287190Y-66634329D01*
X24287190Y-67059811D01*
X24370198Y-67477119D01*
X24533023Y-67870214D01*
X24769409Y-68223990D01*
X25070270Y-68524851D01*
X25424046Y-68761237D01*
X25817141Y-68924062D01*
X26234449Y-69007070D01*
X26659931Y-69007070D01*
X27077239Y-68924062D01*
X27470334Y-68761237D01*
X27824110Y-68524851D01*
X28124971Y-68223990D01*
X28174409Y-68150000D01*
X36711928Y-68150000D01*
X36715000Y-68714250D01*
X36873750Y-68873000D01*
X38073000Y-68873000D01*
X38073000Y-68853000D01*
X38327000Y-68853000D01*
X38327000Y-68873000D01*
X39526250Y-68873000D01*
X39685000Y-68714250D01*
X39688072Y-68150000D01*
X257811928Y-68150000D01*
X257811928Y-69850000D01*
X257824188Y-69974482D01*
X257860498Y-70094180D01*
X257919463Y-70204494D01*
X257998815Y-70301185D01*
X258095506Y-70380537D01*
X258205820Y-70439502D01*
X258325518Y-70475812D01*
X258450000Y-70488072D01*
X260150000Y-70488072D01*
X260274482Y-70475812D01*
X260394180Y-70439502D01*
X260504494Y-70380537D01*
X260601185Y-70301185D01*
X260680537Y-70204494D01*
X260739502Y-70094180D01*
X260775812Y-69974482D01*
X260788072Y-69850000D01*
X260788072Y-68150000D01*
X260775812Y-68025518D01*
X260739502Y-67905820D01*
X260680537Y-67795506D01*
X260601185Y-67698815D01*
X260504494Y-67619463D01*
X260394180Y-67560498D01*
X260321620Y-67538487D01*
X260453475Y-67406632D01*
X260615990Y-67163411D01*
X260727932Y-66893158D01*
X260776472Y-66649130D01*
X268855907Y-66649130D01*
X268855907Y-67074612D01*
X268938915Y-67491920D01*
X269101740Y-67885015D01*
X269338126Y-68238791D01*
X269638987Y-68539652D01*
X269992763Y-68776038D01*
X270385858Y-68938863D01*
X270803166Y-69021871D01*
X271228648Y-69021871D01*
X271645956Y-68938863D01*
X272039051Y-68776038D01*
X272392827Y-68539652D01*
X272693688Y-68238791D01*
X272930074Y-67885015D01*
X273092899Y-67491920D01*
X273175907Y-67074612D01*
X273175907Y-66649130D01*
X273092899Y-66231822D01*
X272930074Y-65838727D01*
X272693688Y-65484951D01*
X272392827Y-65184090D01*
X272039051Y-64947704D01*
X271645956Y-64784879D01*
X271228648Y-64701871D01*
X270803166Y-64701871D01*
X270385858Y-64784879D01*
X269992763Y-64947704D01*
X269638987Y-65184090D01*
X269338126Y-65484951D01*
X269101740Y-65838727D01*
X268938915Y-66231822D01*
X268855907Y-66649130D01*
X260776472Y-66649130D01*
X260785000Y-66606260D01*
X260785000Y-66313740D01*
X260727932Y-66026842D01*
X260615990Y-65756589D01*
X260453475Y-65513368D01*
X260246632Y-65306525D01*
X260072240Y-65190000D01*
X260246632Y-65073475D01*
X260453475Y-64866632D01*
X260615990Y-64623411D01*
X260727932Y-64353158D01*
X260785000Y-64066260D01*
X260785000Y-63773740D01*
X260727932Y-63486842D01*
X260615990Y-63216589D01*
X260453475Y-62973368D01*
X260246632Y-62766525D01*
X260004137Y-62604495D01*
X276615000Y-62604495D01*
X276615000Y-62995505D01*
X276691282Y-63379003D01*
X276840915Y-63740250D01*
X277058149Y-64065364D01*
X277334636Y-64341851D01*
X277659750Y-64559085D01*
X278020997Y-64708718D01*
X278404495Y-64785000D01*
X278795505Y-64785000D01*
X279179003Y-64708718D01*
X279540250Y-64559085D01*
X279865364Y-64341851D01*
X280141851Y-64065364D01*
X280359085Y-63740250D01*
X280508718Y-63379003D01*
X280585000Y-62995505D01*
X280585000Y-62604495D01*
X280508718Y-62220997D01*
X280359085Y-61859750D01*
X280141851Y-61534636D01*
X279865364Y-61258149D01*
X279540250Y-61040915D01*
X279179003Y-60891282D01*
X278795505Y-60815000D01*
X278404495Y-60815000D01*
X278020997Y-60891282D01*
X277659750Y-61040915D01*
X277334636Y-61258149D01*
X277058149Y-61534636D01*
X276840915Y-61859750D01*
X276691282Y-62220997D01*
X276615000Y-62604495D01*
X260004137Y-62604495D01*
X260003411Y-62604010D01*
X259733158Y-62492068D01*
X259446260Y-62435000D01*
X259153740Y-62435000D01*
X258866842Y-62492068D01*
X258596589Y-62604010D01*
X258353368Y-62766525D01*
X258146525Y-62973368D01*
X257984010Y-63216589D01*
X257872068Y-63486842D01*
X257815000Y-63773740D01*
X257815000Y-64066260D01*
X257872068Y-64353158D01*
X257984010Y-64623411D01*
X258146525Y-64866632D01*
X258353368Y-65073475D01*
X258527760Y-65190000D01*
X258353368Y-65306525D01*
X258146525Y-65513368D01*
X257984010Y-65756589D01*
X257872068Y-66026842D01*
X257815000Y-66313740D01*
X257815000Y-66606260D01*
X257872068Y-66893158D01*
X257984010Y-67163411D01*
X258146525Y-67406632D01*
X258278380Y-67538487D01*
X258205820Y-67560498D01*
X258095506Y-67619463D01*
X257998815Y-67698815D01*
X257919463Y-67795506D01*
X257860498Y-67905820D01*
X257824188Y-68025518D01*
X257811928Y-68150000D01*
X39688072Y-68150000D01*
X39675812Y-68025518D01*
X39639502Y-67905820D01*
X39580537Y-67795506D01*
X39501185Y-67698815D01*
X39404494Y-67619463D01*
X39294180Y-67560498D01*
X39221620Y-67538487D01*
X39353475Y-67406632D01*
X39515990Y-67163411D01*
X39627932Y-66893158D01*
X39685000Y-66606260D01*
X39685000Y-66313740D01*
X39627932Y-66026842D01*
X39515990Y-65756589D01*
X39353475Y-65513368D01*
X39146632Y-65306525D01*
X38972240Y-65190000D01*
X39146632Y-65073475D01*
X39353475Y-64866632D01*
X39515990Y-64623411D01*
X39627932Y-64353158D01*
X39685000Y-64066260D01*
X39685000Y-63773740D01*
X39627932Y-63486842D01*
X39515990Y-63216589D01*
X39353475Y-62973368D01*
X39146632Y-62766525D01*
X38903411Y-62604010D01*
X38633158Y-62492068D01*
X38346260Y-62435000D01*
X38053740Y-62435000D01*
X37766842Y-62492068D01*
X37496589Y-62604010D01*
X37253368Y-62766525D01*
X37046525Y-62973368D01*
X36884010Y-63216589D01*
X36772068Y-63486842D01*
X36715000Y-63773740D01*
X36715000Y-64066260D01*
X36772068Y-64353158D01*
X36884010Y-64623411D01*
X37046525Y-64866632D01*
X37253368Y-65073475D01*
X37427760Y-65190000D01*
X37253368Y-65306525D01*
X37046525Y-65513368D01*
X36884010Y-65756589D01*
X36772068Y-66026842D01*
X36715000Y-66313740D01*
X36715000Y-66606260D01*
X36772068Y-66893158D01*
X36884010Y-67163411D01*
X37046525Y-67406632D01*
X37178380Y-67538487D01*
X37105820Y-67560498D01*
X36995506Y-67619463D01*
X36898815Y-67698815D01*
X36819463Y-67795506D01*
X36760498Y-67905820D01*
X36724188Y-68025518D01*
X36711928Y-68150000D01*
X28174409Y-68150000D01*
X28361357Y-67870214D01*
X28524182Y-67477119D01*
X28607190Y-67059811D01*
X28607190Y-66634329D01*
X28524182Y-66217021D01*
X28361357Y-65823926D01*
X28124971Y-65470150D01*
X27824110Y-65169289D01*
X27470334Y-64932903D01*
X27077239Y-64770078D01*
X26659931Y-64687070D01*
X26234449Y-64687070D01*
X25817141Y-64770078D01*
X25424046Y-64932903D01*
X25070270Y-65169289D01*
X24769409Y-65470150D01*
X24533023Y-65823926D01*
X24370198Y-66217021D01*
X24287190Y-66634329D01*
X15410823Y-66634329D01*
X16410489Y-62704495D01*
X16715000Y-62704495D01*
X16715000Y-63095505D01*
X16791282Y-63479003D01*
X16940915Y-63840250D01*
X17158149Y-64165364D01*
X17434636Y-64441851D01*
X17759750Y-64659085D01*
X18120997Y-64808718D01*
X18504495Y-64885000D01*
X18895505Y-64885000D01*
X19279003Y-64808718D01*
X19640250Y-64659085D01*
X19965364Y-64441851D01*
X20241851Y-64165364D01*
X20459085Y-63840250D01*
X20608718Y-63479003D01*
X20685000Y-63095505D01*
X20685000Y-62704495D01*
X20608718Y-62320997D01*
X20459085Y-61959750D01*
X20241851Y-61634636D01*
X19965364Y-61358149D01*
X19640250Y-61140915D01*
X19279003Y-60991282D01*
X18895505Y-60915000D01*
X18504495Y-60915000D01*
X18120997Y-60991282D01*
X17759750Y-61140915D01*
X17434636Y-61358149D01*
X17158149Y-61634636D01*
X16940915Y-61959750D01*
X16791282Y-62320997D01*
X16715000Y-62704495D01*
X16410489Y-62704495D01*
X16656297Y-61738189D01*
X16737147Y-61448771D01*
X16846936Y-61231502D01*
X16996841Y-61039687D01*
X17181138Y-60880650D01*
X17392821Y-60760437D01*
X17623824Y-60683628D01*
X17875712Y-60651843D01*
X18054926Y-60658754D01*
G37*
X18054926Y-60658754D02*
X18067581Y-60660000D01*
X279082732Y-60660000D01*
X279407825Y-60677023D01*
X279677419Y-60745228D01*
X279928632Y-60864499D01*
X280151897Y-61030295D01*
X280338705Y-61236297D01*
X280485681Y-61480882D01*
X280570264Y-61700644D01*
X286036180Y-79694959D01*
X286127017Y-80053971D01*
X286143818Y-80374679D01*
X286098006Y-80692541D01*
X285991328Y-80995452D01*
X285827843Y-81271878D01*
X285613786Y-81511278D01*
X285357299Y-81704547D01*
X285045587Y-81855227D01*
X284985948Y-81875674D01*
X284985609Y-81875829D01*
X284980145Y-81877695D01*
X284967161Y-81882435D01*
X284954278Y-81887447D01*
X284941504Y-81892728D01*
X284928843Y-81898274D01*
X278658566Y-84723869D01*
X272336960Y-87414776D01*
X265960281Y-89972744D01*
X259531495Y-92396585D01*
X253053354Y-94685261D01*
X246528662Y-96837780D01*
X239960346Y-98853178D01*
X233351271Y-100730575D01*
X226704291Y-102469160D01*
X220022405Y-104068148D01*
X213308477Y-105526856D01*
X206565475Y-106844637D01*
X199796361Y-108020913D01*
X193004098Y-109055170D01*
X186191615Y-109946959D01*
X179362027Y-110695876D01*
X172518194Y-111301604D01*
X165663238Y-111763869D01*
X162327000Y-111918747D01*
X162327000Y-108700000D01*
X162324560Y-108675224D01*
X162317333Y-108651399D01*
X162305597Y-108629443D01*
X162289803Y-108610197D01*
X162270557Y-108594403D01*
X162248601Y-108582667D01*
X162224776Y-108575440D01*
X162200000Y-108573000D01*
X159356306Y-108573000D01*
X159367809Y-108545091D01*
X159391378Y-108490102D01*
X159394103Y-108481299D01*
X159422308Y-108387881D01*
X159433933Y-108329174D01*
X159446365Y-108270684D01*
X159447327Y-108261530D01*
X159447328Y-108261524D01*
X159447328Y-108261519D01*
X159456850Y-108164402D01*
X159460000Y-108132419D01*
X159460000Y-108072774D01*
X159511020Y-108255656D01*
X159760048Y-108372756D01*
X160027135Y-108439023D01*
X160302017Y-108451910D01*
X160574133Y-108410922D01*
X160833023Y-108317636D01*
X160948980Y-108255656D01*
X161015960Y-108015565D01*
X160230000Y-107229605D01*
X160215858Y-107243748D01*
X160036253Y-107064143D01*
X160050395Y-107050000D01*
X160409605Y-107050000D01*
X161195565Y-107835960D01*
X161435656Y-107768980D01*
X161552756Y-107519952D01*
X161619023Y-107252865D01*
X161621268Y-107204960D01*
X175732727Y-107204960D01*
X175732727Y-107724010D01*
X175833988Y-108233086D01*
X176032620Y-108712626D01*
X176320989Y-109144200D01*
X176688012Y-109511223D01*
X177119586Y-109799592D01*
X177599126Y-109998224D01*
X178108202Y-110099485D01*
X178627252Y-110099485D01*
X179136328Y-109998224D01*
X179615868Y-109799592D01*
X180047442Y-109511223D01*
X180414465Y-109144200D01*
X180702834Y-108712626D01*
X180901466Y-108233086D01*
X181002727Y-107724010D01*
X181002727Y-107204960D01*
X180901466Y-106695884D01*
X180702834Y-106216344D01*
X180414465Y-105784770D01*
X180047442Y-105417747D01*
X179615868Y-105129378D01*
X179136328Y-104930746D01*
X178627252Y-104829485D01*
X178108202Y-104829485D01*
X177599126Y-104930746D01*
X177119586Y-105129378D01*
X176688012Y-105417747D01*
X176320989Y-105784770D01*
X176032620Y-106216344D01*
X175833988Y-106695884D01*
X175732727Y-107204960D01*
X161621268Y-107204960D01*
X161631910Y-106977983D01*
X161590922Y-106705867D01*
X161497636Y-106446977D01*
X161435656Y-106331020D01*
X161195565Y-106264040D01*
X160409605Y-107050000D01*
X160050395Y-107050000D01*
X160036253Y-107035858D01*
X160215858Y-106856253D01*
X160230000Y-106870395D01*
X161015960Y-106084435D01*
X160948980Y-105844344D01*
X160818356Y-105782921D01*
X160833023Y-105777636D01*
X160948980Y-105715656D01*
X161015960Y-105475565D01*
X160230000Y-104689605D01*
X160215858Y-104703748D01*
X160036253Y-104524143D01*
X160050395Y-104510000D01*
X160409605Y-104510000D01*
X161195565Y-105295960D01*
X161435656Y-105228980D01*
X161552756Y-104979952D01*
X161619023Y-104712865D01*
X161631910Y-104437983D01*
X161590922Y-104165867D01*
X161497636Y-103906977D01*
X161435656Y-103791020D01*
X161195565Y-103724040D01*
X160409605Y-104510000D01*
X160050395Y-104510000D01*
X160036253Y-104495858D01*
X160215858Y-104316253D01*
X160230000Y-104330395D01*
X161015960Y-103544435D01*
X160948980Y-103304344D01*
X160813240Y-103240515D01*
X160891727Y-103208005D01*
X161120535Y-103055120D01*
X161315120Y-102860535D01*
X161468005Y-102631727D01*
X161573314Y-102377490D01*
X161627000Y-102107592D01*
X161627000Y-101832408D01*
X161573314Y-101562510D01*
X161468005Y-101308273D01*
X161315120Y-101079465D01*
X161120535Y-100884880D01*
X160891727Y-100731995D01*
X160814485Y-100700000D01*
X160891727Y-100668005D01*
X161120535Y-100515120D01*
X161315120Y-100320535D01*
X161468005Y-100091727D01*
X161573314Y-99837490D01*
X161627000Y-99567592D01*
X161627000Y-99292408D01*
X161573314Y-99022510D01*
X161468005Y-98768273D01*
X161315120Y-98539465D01*
X161120535Y-98344880D01*
X160891727Y-98191995D01*
X160814485Y-98160000D01*
X160891727Y-98128005D01*
X161120535Y-97975120D01*
X161315120Y-97780535D01*
X161468005Y-97551727D01*
X161573314Y-97297490D01*
X161627000Y-97027592D01*
X161627000Y-96752408D01*
X161573314Y-96482510D01*
X161468005Y-96228273D01*
X161315120Y-95999465D01*
X161120535Y-95804880D01*
X160891727Y-95651995D01*
X160814485Y-95620000D01*
X160891727Y-95588005D01*
X161120535Y-95435120D01*
X161315120Y-95240535D01*
X161468005Y-95011727D01*
X161573314Y-94757490D01*
X161627000Y-94487592D01*
X161627000Y-94212408D01*
X161573314Y-93942510D01*
X161468005Y-93688273D01*
X161315120Y-93459465D01*
X161120535Y-93264880D01*
X160891727Y-93111995D01*
X160814485Y-93080000D01*
X160891727Y-93048005D01*
X161120535Y-92895120D01*
X161315120Y-92700535D01*
X161428377Y-92531034D01*
X172263325Y-92531034D01*
X172263325Y-92956516D01*
X172346333Y-93373824D01*
X172509158Y-93766919D01*
X172745544Y-94120695D01*
X173046405Y-94421556D01*
X173400181Y-94657942D01*
X173793276Y-94820767D01*
X174210584Y-94903775D01*
X174636066Y-94903775D01*
X175053374Y-94820767D01*
X175446469Y-94657942D01*
X175800245Y-94421556D01*
X176101106Y-94120695D01*
X176337492Y-93766919D01*
X176500317Y-93373824D01*
X176583325Y-92956516D01*
X176583325Y-92531034D01*
X176500317Y-92113726D01*
X176337492Y-91720631D01*
X176101106Y-91366855D01*
X175800245Y-91065994D01*
X175446469Y-90829608D01*
X175053374Y-90666783D01*
X174636066Y-90583775D01*
X174210584Y-90583775D01*
X173793276Y-90666783D01*
X173400181Y-90829608D01*
X173046405Y-91065994D01*
X172745544Y-91366855D01*
X172509158Y-91720631D01*
X172346333Y-92113726D01*
X172263325Y-92531034D01*
X161428377Y-92531034D01*
X161468005Y-92471727D01*
X161573314Y-92217490D01*
X161627000Y-91947592D01*
X161627000Y-91672408D01*
X161573314Y-91402510D01*
X161468005Y-91148273D01*
X161315120Y-90919465D01*
X161120535Y-90724880D01*
X160891727Y-90571995D01*
X160814485Y-90540000D01*
X160891727Y-90508005D01*
X161120535Y-90355120D01*
X161315120Y-90160535D01*
X161468005Y-89931727D01*
X161573314Y-89677490D01*
X161627000Y-89407592D01*
X161627000Y-89132408D01*
X161573314Y-88862510D01*
X161468005Y-88608273D01*
X161315120Y-88379465D01*
X161120535Y-88184880D01*
X160891727Y-88031995D01*
X160814485Y-88000000D01*
X160891727Y-87968005D01*
X161120535Y-87815120D01*
X161315120Y-87620535D01*
X161468005Y-87391727D01*
X161573314Y-87137490D01*
X161627000Y-86867592D01*
X161627000Y-86804495D01*
X185515000Y-86804495D01*
X185515000Y-87195505D01*
X185591282Y-87579003D01*
X185740915Y-87940250D01*
X185958149Y-88265364D01*
X186234636Y-88541851D01*
X186559750Y-88759085D01*
X186920997Y-88908718D01*
X187304495Y-88985000D01*
X187695505Y-88985000D01*
X188079003Y-88908718D01*
X188440250Y-88759085D01*
X188765364Y-88541851D01*
X189041851Y-88265364D01*
X189259085Y-87940250D01*
X189344995Y-87732844D01*
X218139446Y-87732844D01*
X218139446Y-88025364D01*
X218196514Y-88312262D01*
X218308456Y-88582515D01*
X218470971Y-88825736D01*
X218677814Y-89032579D01*
X218921035Y-89195094D01*
X219191288Y-89307036D01*
X219478186Y-89364104D01*
X219770706Y-89364104D01*
X220057604Y-89307036D01*
X220327857Y-89195094D01*
X220571078Y-89032579D01*
X220777921Y-88825736D01*
X220940436Y-88582515D01*
X221052378Y-88312262D01*
X221109446Y-88025364D01*
X221109446Y-87732844D01*
X221052378Y-87445946D01*
X220940436Y-87175693D01*
X220777921Y-86932472D01*
X220625514Y-86780065D01*
X220699852Y-86765278D01*
X221015602Y-86634490D01*
X221299769Y-86444616D01*
X221439606Y-86304779D01*
X221896349Y-86304779D01*
X221896349Y-86823829D01*
X221997610Y-87332905D01*
X222196242Y-87812445D01*
X222484611Y-88244019D01*
X222851634Y-88611042D01*
X223283208Y-88899411D01*
X223762748Y-89098043D01*
X224271824Y-89199304D01*
X224790874Y-89199304D01*
X225299950Y-89098043D01*
X225779490Y-88899411D01*
X226211064Y-88611042D01*
X226578087Y-88244019D01*
X226866456Y-87812445D01*
X227065088Y-87332905D01*
X227166349Y-86823829D01*
X227166349Y-86304779D01*
X227065088Y-85795703D01*
X226866456Y-85316163D01*
X226724188Y-85103243D01*
X227953252Y-85103243D01*
X227953252Y-85395763D01*
X228010320Y-85682661D01*
X228122262Y-85952914D01*
X228284777Y-86196135D01*
X228491620Y-86402978D01*
X228734841Y-86565493D01*
X229005094Y-86677435D01*
X229291992Y-86734503D01*
X229584512Y-86734503D01*
X229871410Y-86677435D01*
X230141663Y-86565493D01*
X230384884Y-86402978D01*
X230591727Y-86196135D01*
X230754242Y-85952914D01*
X230866184Y-85682661D01*
X230923252Y-85395763D01*
X230923252Y-85103243D01*
X230866184Y-84816345D01*
X230754242Y-84546092D01*
X230591727Y-84302871D01*
X230384884Y-84096028D01*
X230141663Y-83933513D01*
X229871410Y-83821571D01*
X229584512Y-83764503D01*
X229291992Y-83764503D01*
X229005094Y-83821571D01*
X228734841Y-83933513D01*
X228491620Y-84096028D01*
X228284777Y-84302871D01*
X228122262Y-84546092D01*
X228010320Y-84816345D01*
X227953252Y-85103243D01*
X226724188Y-85103243D01*
X226578087Y-84884589D01*
X226211064Y-84517566D01*
X225779490Y-84229197D01*
X225299950Y-84030565D01*
X224790874Y-83929304D01*
X224271824Y-83929304D01*
X223762748Y-84030565D01*
X223283208Y-84229197D01*
X222851634Y-84517566D01*
X222484611Y-84884589D01*
X222196242Y-85316163D01*
X221997610Y-85795703D01*
X221896349Y-86304779D01*
X221439606Y-86304779D01*
X221541434Y-86202951D01*
X221731308Y-85918784D01*
X221862096Y-85603034D01*
X221928771Y-85267836D01*
X221928771Y-84926070D01*
X221862096Y-84590872D01*
X221731308Y-84275122D01*
X221541434Y-83990955D01*
X221299769Y-83749290D01*
X221015602Y-83559416D01*
X220699852Y-83428628D01*
X220364654Y-83361953D01*
X220022888Y-83361953D01*
X219687690Y-83428628D01*
X219371940Y-83559416D01*
X219087773Y-83749290D01*
X218846108Y-83990955D01*
X218656234Y-84275122D01*
X218525446Y-84590872D01*
X218458771Y-84926070D01*
X218458771Y-85267836D01*
X218525446Y-85603034D01*
X218656234Y-85918784D01*
X218846108Y-86202951D01*
X219087773Y-86444616D01*
X219133443Y-86475132D01*
X218921035Y-86563114D01*
X218677814Y-86725629D01*
X218470971Y-86932472D01*
X218308456Y-87175693D01*
X218196514Y-87445946D01*
X218139446Y-87732844D01*
X189344995Y-87732844D01*
X189408718Y-87579003D01*
X189485000Y-87195505D01*
X189485000Y-86804495D01*
X189408718Y-86420997D01*
X189259085Y-86059750D01*
X189041851Y-85734636D01*
X188765364Y-85458149D01*
X188440250Y-85240915D01*
X188079003Y-85091282D01*
X187695505Y-85015000D01*
X187304495Y-85015000D01*
X186920997Y-85091282D01*
X186559750Y-85240915D01*
X186234636Y-85458149D01*
X185958149Y-85734636D01*
X185740915Y-86059750D01*
X185591282Y-86420997D01*
X185515000Y-86804495D01*
X161627000Y-86804495D01*
X161627000Y-86592408D01*
X161573314Y-86322510D01*
X161468005Y-86068273D01*
X161315120Y-85839465D01*
X161120535Y-85644880D01*
X160891727Y-85491995D01*
X160820057Y-85462308D01*
X160833023Y-85457636D01*
X160948980Y-85395656D01*
X161015960Y-85155565D01*
X160230000Y-84369605D01*
X160215858Y-84383748D01*
X160036253Y-84204143D01*
X160050395Y-84190000D01*
X160409605Y-84190000D01*
X161195565Y-84975960D01*
X161435656Y-84908980D01*
X161552756Y-84659952D01*
X161619023Y-84392865D01*
X161631910Y-84117983D01*
X161590922Y-83845867D01*
X161497636Y-83586977D01*
X161435656Y-83471020D01*
X161195565Y-83404040D01*
X160409605Y-84190000D01*
X160050395Y-84190000D01*
X160036253Y-84175858D01*
X160215858Y-83996253D01*
X160230000Y-84010395D01*
X161015960Y-83224435D01*
X160948980Y-82984344D01*
X160818356Y-82922921D01*
X160833023Y-82917636D01*
X160948980Y-82855656D01*
X161015960Y-82615565D01*
X160230000Y-81829605D01*
X160215858Y-81843748D01*
X160036253Y-81664143D01*
X160050395Y-81650000D01*
X160409605Y-81650000D01*
X161195565Y-82435960D01*
X161211806Y-82431429D01*
X224990211Y-82431429D01*
X225165448Y-82668788D01*
X225500707Y-82735156D01*
X225842472Y-82734843D01*
X226177609Y-82667861D01*
X226493239Y-82536784D01*
X226777233Y-82346649D01*
X226941349Y-82192937D01*
X226974429Y-81899759D01*
X225716485Y-81173485D01*
X224990211Y-82431429D01*
X161211806Y-82431429D01*
X161435656Y-82368980D01*
X161552756Y-82119952D01*
X161619023Y-81852865D01*
X161631910Y-81577983D01*
X161590922Y-81305867D01*
X161497636Y-81046977D01*
X161435656Y-80931020D01*
X161195565Y-80864040D01*
X160409605Y-81650000D01*
X160050395Y-81650000D01*
X160036253Y-81635858D01*
X160215858Y-81456253D01*
X160230000Y-81470395D01*
X160869688Y-80830707D01*
X223934844Y-80830707D01*
X223935157Y-81172472D01*
X224002139Y-81507609D01*
X224133216Y-81823239D01*
X224323351Y-82107233D01*
X224477063Y-82271349D01*
X224770241Y-82304429D01*
X225496515Y-81046485D01*
X225335487Y-80953515D01*
X225843485Y-80953515D01*
X227101429Y-81679789D01*
X227338788Y-81504552D01*
X227374717Y-81323055D01*
X272325309Y-81323055D01*
X272325309Y-81842105D01*
X272426570Y-82351181D01*
X272625202Y-82830721D01*
X272913571Y-83262295D01*
X273280594Y-83629318D01*
X273712168Y-83917687D01*
X274191708Y-84116319D01*
X274700784Y-84217580D01*
X275219834Y-84217580D01*
X275728910Y-84116319D01*
X276208450Y-83917687D01*
X276640024Y-83629318D01*
X277007047Y-83262295D01*
X277295416Y-82830721D01*
X277494048Y-82351181D01*
X277595309Y-81842105D01*
X277595309Y-81323055D01*
X277494048Y-80813979D01*
X277295416Y-80334439D01*
X277007047Y-79902865D01*
X276808677Y-79704495D01*
X281715000Y-79704495D01*
X281715000Y-80095505D01*
X281791282Y-80479003D01*
X281940915Y-80840250D01*
X282158149Y-81165364D01*
X282434636Y-81441851D01*
X282759750Y-81659085D01*
X283120997Y-81808718D01*
X283504495Y-81885000D01*
X283895505Y-81885000D01*
X284279003Y-81808718D01*
X284640250Y-81659085D01*
X284965364Y-81441851D01*
X285241851Y-81165364D01*
X285459085Y-80840250D01*
X285608718Y-80479003D01*
X285685000Y-80095505D01*
X285685000Y-79704495D01*
X285608718Y-79320997D01*
X285459085Y-78959750D01*
X285241851Y-78634636D01*
X284965364Y-78358149D01*
X284640250Y-78140915D01*
X284279003Y-77991282D01*
X283895505Y-77915000D01*
X283504495Y-77915000D01*
X283120997Y-77991282D01*
X282759750Y-78140915D01*
X282434636Y-78358149D01*
X282158149Y-78634636D01*
X281940915Y-78959750D01*
X281791282Y-79320997D01*
X281715000Y-79704495D01*
X276808677Y-79704495D01*
X276640024Y-79535842D01*
X276208450Y-79247473D01*
X275728910Y-79048841D01*
X275219834Y-78947580D01*
X274700784Y-78947580D01*
X274191708Y-79048841D01*
X273712168Y-79247473D01*
X273280594Y-79535842D01*
X272913571Y-79902865D01*
X272625202Y-80334439D01*
X272426570Y-80813979D01*
X272325309Y-81323055D01*
X227374717Y-81323055D01*
X227405156Y-81169293D01*
X227404843Y-80827528D01*
X227337861Y-80492391D01*
X227206784Y-80176761D01*
X227016649Y-79892767D01*
X226862937Y-79728651D01*
X226569759Y-79695571D01*
X225843485Y-80953515D01*
X225335487Y-80953515D01*
X224238571Y-80320211D01*
X224001212Y-80495448D01*
X223934844Y-80830707D01*
X160869688Y-80830707D01*
X161015960Y-80684435D01*
X160948980Y-80444344D01*
X160813240Y-80380515D01*
X160891727Y-80348005D01*
X161120535Y-80195120D01*
X161215414Y-80100241D01*
X224365571Y-80100241D01*
X225623515Y-80826515D01*
X226349789Y-79568571D01*
X226174552Y-79331212D01*
X225839293Y-79264844D01*
X225497528Y-79265157D01*
X225162391Y-79332139D01*
X224846761Y-79463216D01*
X224562767Y-79653351D01*
X224398651Y-79807063D01*
X224365571Y-80100241D01*
X161215414Y-80100241D01*
X161315120Y-80000535D01*
X161468005Y-79771727D01*
X161573314Y-79517490D01*
X161627000Y-79247592D01*
X161627000Y-78972408D01*
X161573314Y-78702510D01*
X161468005Y-78448273D01*
X161315120Y-78219465D01*
X161120535Y-78024880D01*
X160891727Y-77871995D01*
X160637490Y-77766686D01*
X160367592Y-77713000D01*
X160092408Y-77713000D01*
X159822510Y-77766686D01*
X159568273Y-77871995D01*
X159460000Y-77944341D01*
X159460000Y-77067581D01*
X159457251Y-77039671D01*
X159457272Y-77036693D01*
X159456373Y-77027522D01*
X159451311Y-76979360D01*
X159450450Y-76970617D01*
X159450362Y-76970325D01*
X159446173Y-76930473D01*
X159434140Y-76871854D01*
X159422936Y-76813116D01*
X159420272Y-76804294D01*
X159391416Y-76711075D01*
X159368238Y-76655937D01*
X159345825Y-76600463D01*
X159341498Y-76592327D01*
X159295085Y-76506489D01*
X159261645Y-76456913D01*
X159228881Y-76406844D01*
X159223057Y-76399703D01*
X159160855Y-76324514D01*
X159118406Y-76282361D01*
X159076561Y-76239629D01*
X159069460Y-76233755D01*
X158993839Y-76172079D01*
X158944034Y-76138988D01*
X158894650Y-76105174D01*
X158886544Y-76100792D01*
X158800383Y-76054980D01*
X158745091Y-76032191D01*
X158690102Y-76008622D01*
X158681299Y-76005897D01*
X158587881Y-75977692D01*
X158529174Y-75966067D01*
X158470684Y-75953635D01*
X158461530Y-75952673D01*
X158461524Y-75952672D01*
X158461519Y-75952672D01*
X158364402Y-75943150D01*
X158332419Y-75940000D01*
X139267581Y-75940000D01*
X139239671Y-75942749D01*
X139236693Y-75942728D01*
X139227522Y-75943627D01*
X139179360Y-75948689D01*
X139170617Y-75949550D01*
X139170325Y-75949638D01*
X139130473Y-75953827D01*
X139071854Y-75965860D01*
X139013116Y-75977064D01*
X139004294Y-75979728D01*
X138911075Y-76008584D01*
X138855937Y-76031762D01*
X138800463Y-76054175D01*
X138792334Y-76058498D01*
X138792330Y-76058500D01*
X138792327Y-76058502D01*
X138706489Y-76104915D01*
X138656913Y-76138355D01*
X138606844Y-76171119D01*
X138599703Y-76176943D01*
X138524514Y-76239145D01*
X138482361Y-76281594D01*
X138439629Y-76323439D01*
X138433755Y-76330540D01*
X138372079Y-76406161D01*
X138338988Y-76455966D01*
X138305174Y-76505350D01*
X138300792Y-76513456D01*
X138254980Y-76599617D01*
X138232191Y-76654909D01*
X138208622Y-76709898D01*
X138205897Y-76718701D01*
X138177692Y-76812119D01*
X138166067Y-76870826D01*
X138153635Y-76929316D01*
X138152673Y-76938470D01*
X138152672Y-76938476D01*
X138152672Y-76938481D01*
X138143150Y-77035598D01*
X138143150Y-77035608D01*
X138140001Y-77067581D01*
X138140001Y-77944342D01*
X138031727Y-77871995D01*
X137777490Y-77766686D01*
X137507592Y-77713000D01*
X137232408Y-77713000D01*
X136962510Y-77766686D01*
X136708273Y-77871995D01*
X136479465Y-78024880D01*
X136284880Y-78219465D01*
X136131995Y-78448273D01*
X136026686Y-78702510D01*
X135973000Y-78972408D01*
X135973000Y-79247592D01*
X136026686Y-79517490D01*
X136131995Y-79771727D01*
X136284880Y-80000535D01*
X136479465Y-80195120D01*
X136708273Y-80348005D01*
X136779943Y-80377692D01*
X136766977Y-80382364D01*
X136651020Y-80444344D01*
X136584040Y-80684435D01*
X137370000Y-81470395D01*
X137384143Y-81456253D01*
X137563748Y-81635858D01*
X137549605Y-81650000D01*
X137563748Y-81664143D01*
X137384143Y-81843748D01*
X137370000Y-81829605D01*
X136584040Y-82615565D01*
X136651020Y-82855656D01*
X136786760Y-82919485D01*
X136708273Y-82951995D01*
X136479465Y-83104880D01*
X136284880Y-83299465D01*
X136131995Y-83528273D01*
X136026686Y-83782510D01*
X135973000Y-84052408D01*
X135973000Y-84327592D01*
X136026686Y-84597490D01*
X136131995Y-84851727D01*
X136284880Y-85080535D01*
X136479465Y-85275120D01*
X136708273Y-85428005D01*
X136785515Y-85460000D01*
X136708273Y-85491995D01*
X136479465Y-85644880D01*
X136284880Y-85839465D01*
X136131995Y-86068273D01*
X136026686Y-86322510D01*
X135973000Y-86592408D01*
X135973000Y-86867592D01*
X136026686Y-87137490D01*
X136131995Y-87391727D01*
X136284880Y-87620535D01*
X136479465Y-87815120D01*
X136708273Y-87968005D01*
X136785515Y-88000000D01*
X136708273Y-88031995D01*
X136479465Y-88184880D01*
X136284880Y-88379465D01*
X136131995Y-88608273D01*
X136026686Y-88862510D01*
X135973000Y-89132408D01*
X135973000Y-89407592D01*
X136026686Y-89677490D01*
X136131995Y-89931727D01*
X136284880Y-90160535D01*
X136479465Y-90355120D01*
X136708273Y-90508005D01*
X136785515Y-90540000D01*
X136708273Y-90571995D01*
X136479465Y-90724880D01*
X136284880Y-90919465D01*
X136131995Y-91148273D01*
X136026686Y-91402510D01*
X135973000Y-91672408D01*
X135973000Y-91947592D01*
X136026686Y-92217490D01*
X136131995Y-92471727D01*
X136284880Y-92700535D01*
X136479465Y-92895120D01*
X136708273Y-93048005D01*
X136785515Y-93080000D01*
X136708273Y-93111995D01*
X136479465Y-93264880D01*
X136284880Y-93459465D01*
X136131995Y-93688273D01*
X136026686Y-93942510D01*
X135973000Y-94212408D01*
X135973000Y-94487592D01*
X136026686Y-94757490D01*
X136131995Y-95011727D01*
X136284880Y-95240535D01*
X136479465Y-95435120D01*
X136708273Y-95588005D01*
X136785515Y-95620000D01*
X136708273Y-95651995D01*
X136479465Y-95804880D01*
X136284880Y-95999465D01*
X136131995Y-96228273D01*
X136026686Y-96482510D01*
X135973000Y-96752408D01*
X135973000Y-97027592D01*
X136026686Y-97297490D01*
X136131995Y-97551727D01*
X136284880Y-97780535D01*
X136479465Y-97975120D01*
X136708273Y-98128005D01*
X136785515Y-98160000D01*
X136708273Y-98191995D01*
X136479465Y-98344880D01*
X136284880Y-98539465D01*
X136131995Y-98768273D01*
X136026686Y-99022510D01*
X135973000Y-99292408D01*
X135973000Y-99567592D01*
X136026686Y-99837490D01*
X136131995Y-100091727D01*
X136284880Y-100320535D01*
X136479465Y-100515120D01*
X136708273Y-100668005D01*
X136785515Y-100700000D01*
X136708273Y-100731995D01*
X136479465Y-100884880D01*
X136284880Y-101079465D01*
X136131995Y-101308273D01*
X136026686Y-101562510D01*
X135973000Y-101832408D01*
X135973000Y-102107592D01*
X136026686Y-102377490D01*
X136131995Y-102631727D01*
X136284880Y-102860535D01*
X136479465Y-103055120D01*
X136708273Y-103208005D01*
X136785515Y-103240000D01*
X136708273Y-103271995D01*
X136479465Y-103424880D01*
X136284880Y-103619465D01*
X136131995Y-103848273D01*
X136026686Y-104102510D01*
X135973000Y-104372408D01*
X135973000Y-104647592D01*
X136026686Y-104917490D01*
X136131995Y-105171727D01*
X136284880Y-105400535D01*
X136479465Y-105595120D01*
X136708273Y-105748005D01*
X136785515Y-105780000D01*
X136708273Y-105811995D01*
X136479465Y-105964880D01*
X136284880Y-106159465D01*
X136131995Y-106388273D01*
X136026686Y-106642510D01*
X135973000Y-106912408D01*
X135973000Y-107187592D01*
X136026686Y-107457490D01*
X136131995Y-107711727D01*
X136284880Y-107940535D01*
X136479465Y-108135120D01*
X136708273Y-108288005D01*
X136962510Y-108393314D01*
X137232408Y-108447000D01*
X137507592Y-108447000D01*
X137777490Y-108393314D01*
X138031727Y-108288005D01*
X138147630Y-108210561D01*
X138148691Y-108220663D01*
X138149550Y-108229382D01*
X138149638Y-108229673D01*
X138153827Y-108269527D01*
X138165861Y-108328152D01*
X138177064Y-108386884D01*
X138179728Y-108395706D01*
X138208584Y-108488925D01*
X138231767Y-108544075D01*
X138243453Y-108573000D01*
X135400000Y-108573000D01*
X135375224Y-108575440D01*
X135351399Y-108582667D01*
X135329443Y-108594403D01*
X135310197Y-108610197D01*
X135294403Y-108629443D01*
X135282667Y-108651399D01*
X135275440Y-108675224D01*
X135273000Y-108700000D01*
X135273000Y-112066078D01*
X131325785Y-111918437D01*
X124466904Y-111517900D01*
X117617947Y-110973813D01*
X110781865Y-110286410D01*
X103961678Y-109455992D01*
X97160358Y-108482923D01*
X90380951Y-107367639D01*
X89427266Y-107190159D01*
X116460370Y-107190159D01*
X116460370Y-107709209D01*
X116561631Y-108218285D01*
X116760263Y-108697825D01*
X117048632Y-109129399D01*
X117415655Y-109496422D01*
X117847229Y-109784791D01*
X118326769Y-109983423D01*
X118835845Y-110084684D01*
X119354895Y-110084684D01*
X119863971Y-109983423D01*
X120343511Y-109784791D01*
X120775085Y-109496422D01*
X121142108Y-109129399D01*
X121430477Y-108697825D01*
X121629109Y-108218285D01*
X121730370Y-107709209D01*
X121730370Y-107190159D01*
X121629109Y-106681083D01*
X121430477Y-106201543D01*
X121142108Y-105769969D01*
X120775085Y-105402946D01*
X120343511Y-105114577D01*
X119863971Y-104915945D01*
X119354895Y-104814684D01*
X118835845Y-104814684D01*
X118326769Y-104915945D01*
X117847229Y-105114577D01*
X117415655Y-105402946D01*
X117048632Y-105769969D01*
X116760263Y-106201543D01*
X116561631Y-106681083D01*
X116460370Y-107190159D01*
X89427266Y-107190159D01*
X83626304Y-106110606D01*
X76899526Y-104712402D01*
X70203502Y-103173630D01*
X63541207Y-101494974D01*
X56915448Y-99677138D01*
X50329279Y-97720963D01*
X43785473Y-95627269D01*
X37286977Y-93397003D01*
X34885628Y-92516233D01*
X120879772Y-92516233D01*
X120879772Y-92941715D01*
X120962780Y-93359023D01*
X121125605Y-93752118D01*
X121361991Y-94105894D01*
X121662852Y-94406755D01*
X122016628Y-94643141D01*
X122409723Y-94805966D01*
X122827031Y-94888974D01*
X123252513Y-94888974D01*
X123669821Y-94805966D01*
X124062916Y-94643141D01*
X124416692Y-94406755D01*
X124717553Y-94105894D01*
X124953939Y-93752118D01*
X125116764Y-93359023D01*
X125199772Y-92941715D01*
X125199772Y-92516233D01*
X125116764Y-92098925D01*
X124953939Y-91705830D01*
X124717553Y-91352054D01*
X124416692Y-91051193D01*
X124062916Y-90814807D01*
X123669821Y-90651982D01*
X123252513Y-90568974D01*
X122827031Y-90568974D01*
X122409723Y-90651982D01*
X122016628Y-90814807D01*
X121662852Y-91051193D01*
X121361991Y-91352054D01*
X121125605Y-91705830D01*
X120962780Y-92098925D01*
X120879772Y-92516233D01*
X34885628Y-92516233D01*
X30836620Y-91031133D01*
X24437219Y-88530694D01*
X18091195Y-85896622D01*
X16248029Y-85088442D01*
X66539844Y-85088442D01*
X66539844Y-85380962D01*
X66596912Y-85667860D01*
X66708854Y-85938113D01*
X66871369Y-86181334D01*
X67078212Y-86388177D01*
X67321433Y-86550692D01*
X67591686Y-86662634D01*
X67878584Y-86719702D01*
X68171104Y-86719702D01*
X68458002Y-86662634D01*
X68728255Y-86550692D01*
X68971476Y-86388177D01*
X69069675Y-86289978D01*
X70296748Y-86289978D01*
X70296748Y-86809028D01*
X70398009Y-87318104D01*
X70596641Y-87797644D01*
X70885010Y-88229218D01*
X71252033Y-88596241D01*
X71683607Y-88884610D01*
X72163147Y-89083242D01*
X72672223Y-89184503D01*
X73191273Y-89184503D01*
X73700349Y-89083242D01*
X74179889Y-88884610D01*
X74611463Y-88596241D01*
X74978486Y-88229218D01*
X75266855Y-87797644D01*
X75299826Y-87718044D01*
X76353651Y-87718044D01*
X76353651Y-88010564D01*
X76410719Y-88297462D01*
X76522661Y-88567715D01*
X76685176Y-88810936D01*
X76892019Y-89017779D01*
X77135240Y-89180294D01*
X77405493Y-89292236D01*
X77692391Y-89349304D01*
X77984911Y-89349304D01*
X78271809Y-89292236D01*
X78542062Y-89180294D01*
X78785283Y-89017779D01*
X78992126Y-88810936D01*
X79154641Y-88567715D01*
X79266583Y-88297462D01*
X79323651Y-88010564D01*
X79323651Y-87718044D01*
X79266583Y-87431146D01*
X79154641Y-87160893D01*
X78992126Y-86917672D01*
X78785283Y-86710829D01*
X78542062Y-86548314D01*
X78271809Y-86436372D01*
X78111554Y-86404495D01*
X106615000Y-86404495D01*
X106615000Y-86795505D01*
X106691282Y-87179003D01*
X106840915Y-87540250D01*
X107058149Y-87865364D01*
X107334636Y-88141851D01*
X107659750Y-88359085D01*
X108020997Y-88508718D01*
X108404495Y-88585000D01*
X108795505Y-88585000D01*
X109179003Y-88508718D01*
X109540250Y-88359085D01*
X109865364Y-88141851D01*
X110141851Y-87865364D01*
X110359085Y-87540250D01*
X110508718Y-87179003D01*
X110585000Y-86795505D01*
X110585000Y-86404495D01*
X110508718Y-86020997D01*
X110359085Y-85659750D01*
X110141851Y-85334636D01*
X109865364Y-85058149D01*
X109540250Y-84840915D01*
X109179003Y-84691282D01*
X108795505Y-84615000D01*
X108404495Y-84615000D01*
X108020997Y-84691282D01*
X107659750Y-84840915D01*
X107334636Y-85058149D01*
X107058149Y-85334636D01*
X106840915Y-85659750D01*
X106691282Y-86020997D01*
X106615000Y-86404495D01*
X78111554Y-86404495D01*
X77984911Y-86379304D01*
X77692391Y-86379304D01*
X77405493Y-86436372D01*
X77135240Y-86548314D01*
X76892019Y-86710829D01*
X76685176Y-86917672D01*
X76522661Y-87160893D01*
X76410719Y-87431146D01*
X76353651Y-87718044D01*
X75299826Y-87718044D01*
X75465487Y-87318104D01*
X75566748Y-86809028D01*
X75566748Y-86289978D01*
X75465487Y-85780902D01*
X75266855Y-85301362D01*
X74978486Y-84869788D01*
X74611463Y-84502765D01*
X74179889Y-84214396D01*
X73700349Y-84015764D01*
X73191273Y-83914503D01*
X72672223Y-83914503D01*
X72163147Y-84015764D01*
X71683607Y-84214396D01*
X71252033Y-84502765D01*
X70885010Y-84869788D01*
X70596641Y-85301362D01*
X70398009Y-85780902D01*
X70296748Y-86289978D01*
X69069675Y-86289978D01*
X69178319Y-86181334D01*
X69340834Y-85938113D01*
X69452776Y-85667860D01*
X69509844Y-85380962D01*
X69509844Y-85088442D01*
X69452776Y-84801544D01*
X69445879Y-84784893D01*
X69514643Y-84808165D01*
X69853525Y-84852464D01*
X70194538Y-84829800D01*
X70413523Y-84778739D01*
X70588760Y-84541380D01*
X69881742Y-83316788D01*
X69894830Y-83303700D01*
X69747566Y-83156436D01*
X70082456Y-83156436D01*
X70808730Y-84414380D01*
X71101908Y-84381300D01*
X71327014Y-84124141D01*
X71497625Y-83828007D01*
X71607185Y-83504279D01*
X71651484Y-83165397D01*
X71628820Y-82824384D01*
X71577759Y-82605399D01*
X71340400Y-82430162D01*
X70082456Y-83156436D01*
X69747566Y-83156436D01*
X69715222Y-83124092D01*
X69137044Y-83702270D01*
X68743969Y-83929212D01*
X68728255Y-83918712D01*
X68458002Y-83806770D01*
X68171104Y-83749702D01*
X67878584Y-83749702D01*
X67591686Y-83806770D01*
X67321433Y-83918712D01*
X67078212Y-84081227D01*
X66871369Y-84288070D01*
X66708854Y-84531291D01*
X66596912Y-84801544D01*
X66539844Y-85088442D01*
X16248029Y-85088442D01*
X12538069Y-83461723D01*
X12239322Y-83262233D01*
X11989706Y-83013197D01*
X11793217Y-82720426D01*
X11657336Y-82395062D01*
X11587240Y-82049501D01*
X11585598Y-81696907D01*
X11642083Y-81404495D01*
X11915000Y-81404495D01*
X11915000Y-81795505D01*
X11991282Y-82179003D01*
X12140915Y-82540250D01*
X12358149Y-82865364D01*
X12634636Y-83141851D01*
X12959750Y-83359085D01*
X13320997Y-83508718D01*
X13704495Y-83585000D01*
X14095505Y-83585000D01*
X14479003Y-83508718D01*
X14840250Y-83359085D01*
X15165364Y-83141851D01*
X15441851Y-82865364D01*
X15659085Y-82540250D01*
X15808718Y-82179003D01*
X15885000Y-81795505D01*
X15885000Y-81404495D01*
X15865857Y-81308254D01*
X19867787Y-81308254D01*
X19867787Y-81827304D01*
X19969048Y-82336380D01*
X20167680Y-82815920D01*
X20456049Y-83247494D01*
X20823072Y-83614517D01*
X21254646Y-83902886D01*
X21734186Y-84101518D01*
X22243262Y-84202779D01*
X22762312Y-84202779D01*
X23271388Y-84101518D01*
X23750928Y-83902886D01*
X24182502Y-83614517D01*
X24549525Y-83247494D01*
X24678476Y-83054505D01*
X68166458Y-83054505D01*
X68189122Y-83395518D01*
X68240183Y-83614503D01*
X68477542Y-83789740D01*
X69735486Y-83063466D01*
X69009212Y-81805522D01*
X68716034Y-81838602D01*
X68490928Y-82095761D01*
X68320317Y-82391895D01*
X68210757Y-82715623D01*
X68166458Y-83054505D01*
X24678476Y-83054505D01*
X24837894Y-82815920D01*
X25036526Y-82336380D01*
X25137787Y-81827304D01*
X25137787Y-81678522D01*
X69229182Y-81678522D01*
X69955456Y-82936466D01*
X71213400Y-82210192D01*
X71204253Y-82129117D01*
X74965000Y-82129117D01*
X74965000Y-82470883D01*
X75031675Y-82806081D01*
X75162463Y-83121831D01*
X75352337Y-83405998D01*
X75594002Y-83647663D01*
X75878169Y-83837537D01*
X76193919Y-83968325D01*
X76529117Y-84035000D01*
X76870883Y-84035000D01*
X77206081Y-83968325D01*
X77521831Y-83837537D01*
X77805998Y-83647663D01*
X78047663Y-83405998D01*
X78237537Y-83121831D01*
X78368325Y-82806081D01*
X78435000Y-82470883D01*
X78435000Y-82129117D01*
X78368325Y-81793919D01*
X78338543Y-81722017D01*
X135968090Y-81722017D01*
X136009078Y-81994133D01*
X136102364Y-82253023D01*
X136164344Y-82368980D01*
X136404435Y-82435960D01*
X137190395Y-81650000D01*
X136404435Y-80864040D01*
X136164344Y-80931020D01*
X136047244Y-81180048D01*
X135980977Y-81447135D01*
X135968090Y-81722017D01*
X78338543Y-81722017D01*
X78237537Y-81478169D01*
X78047663Y-81194002D01*
X77805998Y-80952337D01*
X77521831Y-80762463D01*
X77206081Y-80631675D01*
X76870883Y-80565000D01*
X76529117Y-80565000D01*
X76193919Y-80631675D01*
X75878169Y-80762463D01*
X75594002Y-80952337D01*
X75352337Y-81194002D01*
X75162463Y-81478169D01*
X75031675Y-81793919D01*
X74965000Y-82129117D01*
X71204253Y-82129117D01*
X71180320Y-81917014D01*
X70923161Y-81691908D01*
X70627027Y-81521297D01*
X70303299Y-81411737D01*
X69964417Y-81367438D01*
X69623404Y-81390102D01*
X69404419Y-81441163D01*
X69229182Y-81678522D01*
X25137787Y-81678522D01*
X25137787Y-81308254D01*
X25036526Y-80799178D01*
X24837894Y-80319638D01*
X24549525Y-79888064D01*
X24182502Y-79521041D01*
X23750928Y-79232672D01*
X23271388Y-79034040D01*
X22762312Y-78932779D01*
X22243262Y-78932779D01*
X21734186Y-79034040D01*
X21254646Y-79232672D01*
X20823072Y-79521041D01*
X20456049Y-79888064D01*
X20167680Y-80319638D01*
X19969048Y-80799178D01*
X19867787Y-81308254D01*
X15865857Y-81308254D01*
X15808718Y-81020997D01*
X15659085Y-80659750D01*
X15441851Y-80334636D01*
X15165364Y-80058149D01*
X14840250Y-79840915D01*
X14479003Y-79691282D01*
X14095505Y-79615000D01*
X13704495Y-79615000D01*
X13320997Y-79691282D01*
X12959750Y-79840915D01*
X12634636Y-80058149D01*
X12358149Y-80334636D01*
X12140915Y-80659750D01*
X11991282Y-81020997D01*
X11915000Y-81404495D01*
X11642083Y-81404495D01*
X11655973Y-81332593D01*
X11706905Y-81184273D01*
X11716067Y-81158960D01*
X14592824Y-69850000D01*
X36711928Y-69850000D01*
X36724188Y-69974482D01*
X36760498Y-70094180D01*
X36819463Y-70204494D01*
X36898815Y-70301185D01*
X36995506Y-70380537D01*
X37105820Y-70439502D01*
X37225518Y-70475812D01*
X37350000Y-70488072D01*
X37914250Y-70485000D01*
X38073000Y-70326250D01*
X38073000Y-69127000D01*
X38327000Y-69127000D01*
X38327000Y-70326250D01*
X38485750Y-70485000D01*
X39050000Y-70488072D01*
X39174482Y-70475812D01*
X39294180Y-70439502D01*
X39404494Y-70380537D01*
X39501185Y-70301185D01*
X39580537Y-70204494D01*
X39639502Y-70094180D01*
X39675812Y-69974482D01*
X39688072Y-69850000D01*
X39685000Y-69285750D01*
X39526250Y-69127000D01*
X38327000Y-69127000D01*
X38073000Y-69127000D01*
X36873750Y-69127000D01*
X36715000Y-69285750D01*
X36711928Y-69850000D01*
X14592824Y-69850000D01*
X15410823Y-66634329D01*
X24287190Y-66634329D01*
X24287190Y-67059811D01*
X24370198Y-67477119D01*
X24533023Y-67870214D01*
X24769409Y-68223990D01*
X25070270Y-68524851D01*
X25424046Y-68761237D01*
X25817141Y-68924062D01*
X26234449Y-69007070D01*
X26659931Y-69007070D01*
X27077239Y-68924062D01*
X27470334Y-68761237D01*
X27824110Y-68524851D01*
X28124971Y-68223990D01*
X28174409Y-68150000D01*
X36711928Y-68150000D01*
X36715000Y-68714250D01*
X36873750Y-68873000D01*
X38073000Y-68873000D01*
X38073000Y-68853000D01*
X38327000Y-68853000D01*
X38327000Y-68873000D01*
X39526250Y-68873000D01*
X39685000Y-68714250D01*
X39688072Y-68150000D01*
X257811928Y-68150000D01*
X257811928Y-69850000D01*
X257824188Y-69974482D01*
X257860498Y-70094180D01*
X257919463Y-70204494D01*
X257998815Y-70301185D01*
X258095506Y-70380537D01*
X258205820Y-70439502D01*
X258325518Y-70475812D01*
X258450000Y-70488072D01*
X260150000Y-70488072D01*
X260274482Y-70475812D01*
X260394180Y-70439502D01*
X260504494Y-70380537D01*
X260601185Y-70301185D01*
X260680537Y-70204494D01*
X260739502Y-70094180D01*
X260775812Y-69974482D01*
X260788072Y-69850000D01*
X260788072Y-68150000D01*
X260775812Y-68025518D01*
X260739502Y-67905820D01*
X260680537Y-67795506D01*
X260601185Y-67698815D01*
X260504494Y-67619463D01*
X260394180Y-67560498D01*
X260321620Y-67538487D01*
X260453475Y-67406632D01*
X260615990Y-67163411D01*
X260727932Y-66893158D01*
X260776472Y-66649130D01*
X268855907Y-66649130D01*
X268855907Y-67074612D01*
X268938915Y-67491920D01*
X269101740Y-67885015D01*
X269338126Y-68238791D01*
X269638987Y-68539652D01*
X269992763Y-68776038D01*
X270385858Y-68938863D01*
X270803166Y-69021871D01*
X271228648Y-69021871D01*
X271645956Y-68938863D01*
X272039051Y-68776038D01*
X272392827Y-68539652D01*
X272693688Y-68238791D01*
X272930074Y-67885015D01*
X273092899Y-67491920D01*
X273175907Y-67074612D01*
X273175907Y-66649130D01*
X273092899Y-66231822D01*
X272930074Y-65838727D01*
X272693688Y-65484951D01*
X272392827Y-65184090D01*
X272039051Y-64947704D01*
X271645956Y-64784879D01*
X271228648Y-64701871D01*
X270803166Y-64701871D01*
X270385858Y-64784879D01*
X269992763Y-64947704D01*
X269638987Y-65184090D01*
X269338126Y-65484951D01*
X269101740Y-65838727D01*
X268938915Y-66231822D01*
X268855907Y-66649130D01*
X260776472Y-66649130D01*
X260785000Y-66606260D01*
X260785000Y-66313740D01*
X260727932Y-66026842D01*
X260615990Y-65756589D01*
X260453475Y-65513368D01*
X260246632Y-65306525D01*
X260072240Y-65190000D01*
X260246632Y-65073475D01*
X260453475Y-64866632D01*
X260615990Y-64623411D01*
X260727932Y-64353158D01*
X260785000Y-64066260D01*
X260785000Y-63773740D01*
X260727932Y-63486842D01*
X260615990Y-63216589D01*
X260453475Y-62973368D01*
X260246632Y-62766525D01*
X260004137Y-62604495D01*
X276615000Y-62604495D01*
X276615000Y-62995505D01*
X276691282Y-63379003D01*
X276840915Y-63740250D01*
X277058149Y-64065364D01*
X277334636Y-64341851D01*
X277659750Y-64559085D01*
X278020997Y-64708718D01*
X278404495Y-64785000D01*
X278795505Y-64785000D01*
X279179003Y-64708718D01*
X279540250Y-64559085D01*
X279865364Y-64341851D01*
X280141851Y-64065364D01*
X280359085Y-63740250D01*
X280508718Y-63379003D01*
X280585000Y-62995505D01*
X280585000Y-62604495D01*
X280508718Y-62220997D01*
X280359085Y-61859750D01*
X280141851Y-61534636D01*
X279865364Y-61258149D01*
X279540250Y-61040915D01*
X279179003Y-60891282D01*
X278795505Y-60815000D01*
X278404495Y-60815000D01*
X278020997Y-60891282D01*
X277659750Y-61040915D01*
X277334636Y-61258149D01*
X277058149Y-61534636D01*
X276840915Y-61859750D01*
X276691282Y-62220997D01*
X276615000Y-62604495D01*
X260004137Y-62604495D01*
X260003411Y-62604010D01*
X259733158Y-62492068D01*
X259446260Y-62435000D01*
X259153740Y-62435000D01*
X258866842Y-62492068D01*
X258596589Y-62604010D01*
X258353368Y-62766525D01*
X258146525Y-62973368D01*
X257984010Y-63216589D01*
X257872068Y-63486842D01*
X257815000Y-63773740D01*
X257815000Y-64066260D01*
X257872068Y-64353158D01*
X257984010Y-64623411D01*
X258146525Y-64866632D01*
X258353368Y-65073475D01*
X258527760Y-65190000D01*
X258353368Y-65306525D01*
X258146525Y-65513368D01*
X257984010Y-65756589D01*
X257872068Y-66026842D01*
X257815000Y-66313740D01*
X257815000Y-66606260D01*
X257872068Y-66893158D01*
X257984010Y-67163411D01*
X258146525Y-67406632D01*
X258278380Y-67538487D01*
X258205820Y-67560498D01*
X258095506Y-67619463D01*
X257998815Y-67698815D01*
X257919463Y-67795506D01*
X257860498Y-67905820D01*
X257824188Y-68025518D01*
X257811928Y-68150000D01*
X39688072Y-68150000D01*
X39675812Y-68025518D01*
X39639502Y-67905820D01*
X39580537Y-67795506D01*
X39501185Y-67698815D01*
X39404494Y-67619463D01*
X39294180Y-67560498D01*
X39221620Y-67538487D01*
X39353475Y-67406632D01*
X39515990Y-67163411D01*
X39627932Y-66893158D01*
X39685000Y-66606260D01*
X39685000Y-66313740D01*
X39627932Y-66026842D01*
X39515990Y-65756589D01*
X39353475Y-65513368D01*
X39146632Y-65306525D01*
X38972240Y-65190000D01*
X39146632Y-65073475D01*
X39353475Y-64866632D01*
X39515990Y-64623411D01*
X39627932Y-64353158D01*
X39685000Y-64066260D01*
X39685000Y-63773740D01*
X39627932Y-63486842D01*
X39515990Y-63216589D01*
X39353475Y-62973368D01*
X39146632Y-62766525D01*
X38903411Y-62604010D01*
X38633158Y-62492068D01*
X38346260Y-62435000D01*
X38053740Y-62435000D01*
X37766842Y-62492068D01*
X37496589Y-62604010D01*
X37253368Y-62766525D01*
X37046525Y-62973368D01*
X36884010Y-63216589D01*
X36772068Y-63486842D01*
X36715000Y-63773740D01*
X36715000Y-64066260D01*
X36772068Y-64353158D01*
X36884010Y-64623411D01*
X37046525Y-64866632D01*
X37253368Y-65073475D01*
X37427760Y-65190000D01*
X37253368Y-65306525D01*
X37046525Y-65513368D01*
X36884010Y-65756589D01*
X36772068Y-66026842D01*
X36715000Y-66313740D01*
X36715000Y-66606260D01*
X36772068Y-66893158D01*
X36884010Y-67163411D01*
X37046525Y-67406632D01*
X37178380Y-67538487D01*
X37105820Y-67560498D01*
X36995506Y-67619463D01*
X36898815Y-67698815D01*
X36819463Y-67795506D01*
X36760498Y-67905820D01*
X36724188Y-68025518D01*
X36711928Y-68150000D01*
X28174409Y-68150000D01*
X28361357Y-67870214D01*
X28524182Y-67477119D01*
X28607190Y-67059811D01*
X28607190Y-66634329D01*
X28524182Y-66217021D01*
X28361357Y-65823926D01*
X28124971Y-65470150D01*
X27824110Y-65169289D01*
X27470334Y-64932903D01*
X27077239Y-64770078D01*
X26659931Y-64687070D01*
X26234449Y-64687070D01*
X25817141Y-64770078D01*
X25424046Y-64932903D01*
X25070270Y-65169289D01*
X24769409Y-65470150D01*
X24533023Y-65823926D01*
X24370198Y-66217021D01*
X24287190Y-66634329D01*
X15410823Y-66634329D01*
X16410489Y-62704495D01*
X16715000Y-62704495D01*
X16715000Y-63095505D01*
X16791282Y-63479003D01*
X16940915Y-63840250D01*
X17158149Y-64165364D01*
X17434636Y-64441851D01*
X17759750Y-64659085D01*
X18120997Y-64808718D01*
X18504495Y-64885000D01*
X18895505Y-64885000D01*
X19279003Y-64808718D01*
X19640250Y-64659085D01*
X19965364Y-64441851D01*
X20241851Y-64165364D01*
X20459085Y-63840250D01*
X20608718Y-63479003D01*
X20685000Y-63095505D01*
X20685000Y-62704495D01*
X20608718Y-62320997D01*
X20459085Y-61959750D01*
X20241851Y-61634636D01*
X19965364Y-61358149D01*
X19640250Y-61140915D01*
X19279003Y-60991282D01*
X18895505Y-60915000D01*
X18504495Y-60915000D01*
X18120997Y-60991282D01*
X17759750Y-61140915D01*
X17434636Y-61358149D01*
X17158149Y-61634636D01*
X16940915Y-61959750D01*
X16791282Y-62320997D01*
X16715000Y-62704495D01*
X16410489Y-62704495D01*
X16656297Y-61738189D01*
X16737147Y-61448771D01*
X16846936Y-61231502D01*
X16996841Y-61039687D01*
X17181138Y-60880650D01*
X17392821Y-60760437D01*
X17623824Y-60683628D01*
X17875712Y-60651843D01*
X18054926Y-60658754D01*
%TD*%
M02*
