M48
; DRILL file {KiCad (5.1.6)-1} date 12/26/20 21:49:58
; FORMAT={-:-/ absolute / inch / decimal}
; #@! TF.CreationDate,2020-12-26T21:49:58+02:00
; #@! TF.GenerationSoftware,Kicad,Pcbnew,(5.1.6)-1
; #@! TF.FileFunction,Plated,1,2,PTH
FMAT,2
INCH
T1C0.0300
T2C0.0394
T3C0.0591
%
G90
G05
T1
X5.4083Y-3.1146
X5.4083Y-3.2146
X5.4083Y-3.3146
X5.4083Y-3.4146
X5.4083Y-3.5146
X5.4083Y-3.6146
X5.4083Y-3.7146
X5.4083Y-3.8146
X5.4083Y-3.9146
X5.4083Y-4.0146
X5.4083Y-4.1146
X5.4083Y-4.2146
X6.3083Y-3.1146
X6.3083Y-3.2146
X6.3083Y-3.3146
X6.3083Y-3.4146
X6.3083Y-3.5146
X6.3083Y-3.6146
X6.3083Y-3.7146
X6.3083Y-3.8146
X6.3083Y-3.9146
X6.3083Y-4.0146
X6.3083Y-4.1146
X6.3083Y-4.2146
T2
X1.5039Y-2.5165
X1.5039Y-2.6165
X1.5039Y-2.7165
X10.2087Y-2.5165
X10.2087Y-2.6165
X10.2087Y-2.7165
T3
X8.669Y-3.3503
X8.8846Y-3.189
X2.7523Y-3.272
X3.0197Y-3.2402
T0
M30
