M48
; DRILL file {KiCad (5.1.6)-1} date 12/26/20 21:49:58
; FORMAT={-:-/ absolute / inch / decimal}
; #@! TF.CreationDate,2020-12-26T21:49:58+02:00
; #@! TF.GenerationSoftware,Kicad,Pcbnew,(5.1.6)-1
; #@! TF.FileFunction,NonPlated,1,2,NPTH
FMAT,2
INCH
T1C0.0669
T2C0.1063
T3C0.1201
T4C0.1575
%
G90
G05
T1
X8.6466Y-3.4598
X9.033Y-3.3563
X2.6781Y-3.3557
X3.0645Y-3.4592
T2
X7.3819Y-3.4252
X0.5472Y-3.2126
X10.9685Y-2.4724
X11.1693Y-3.1457
X4.2756Y-3.4094
X0.7362Y-2.4764
T3
X6.8671Y-3.6513
X10.6699Y-2.6324
X1.0412Y-2.6318
X4.8441Y-3.6507
T4
X7.0224Y-4.2309
X8.8398Y-3.408
X10.8252Y-3.2119
X0.8859Y-3.2113
X2.8713Y-3.4075
X4.6888Y-4.2303
T0
M30
