%TF.GenerationSoftware,KiCad,Pcbnew,(5.1.6)-1*%
%TF.CreationDate,2020-12-26T21:50:01+02:00*%
%TF.ProjectId,cubetimer,63756265-7469-46d6-9572-2e6b69636164,rev?*%
%TF.SameCoordinates,Original*%
%TF.FileFunction,Profile,NP*%
%FSLAX46Y46*%
G04 Gerber Fmt 4.6, Leading zero omitted, Abs format (unit mm)*
G04 Created by KiCad (PCBNEW (5.1.6)-1) date 2020-12-26 21:50:01*
%MOMM*%
%LPD*%
G01*
G04 APERTURE LIST*
%TA.AperFunction,Profile*%
%ADD10C,0.050000*%
%TD*%
G04 APERTURE END LIST*
D10*
X158800000Y-77100000D02*
X158800000Y-78000000D01*
X158300000Y-76600000D02*
X157700000Y-76600000D01*
X158300000Y-76600000D02*
G75*
G02*
X158800000Y-77100000I0J-500000D01*
G01*
X139300000Y-76600000D02*
X157700000Y-76600000D01*
X158800000Y-108100000D02*
X158800000Y-78000000D01*
X138800000Y-77100000D02*
G75*
G02*
X139300000Y-76600000I500000J0D01*
G01*
X158800000Y-108100000D02*
G75*
G02*
X158300000Y-108600000I-500000J0D01*
G01*
X139300000Y-108600000D02*
X158300000Y-108600000D01*
X139300000Y-108600000D02*
G75*
G02*
X138800000Y-108100000I0J500000D01*
G01*
X138800000Y-108100000D02*
X138800000Y-77100000D01*
X16018575Y-61567985D02*
X11084430Y-80964834D01*
X16018575Y-61567985D02*
G75*
G02*
X18099999Y-60000001I1881425J-332015D01*
G01*
X281194812Y-61485907D02*
X286672206Y-79518006D01*
X279100000Y-60000000D02*
G75*
G02*
X281194812Y-61485907I94813J-2085906D01*
G01*
X286672206Y-79518006D02*
G75*
G02*
X285199999Y-82499999I-2172206J-781994D01*
G01*
X160200000Y-60000000D02*
X279100000Y-60000000D01*
X137400000Y-60000000D02*
X18100000Y-60000000D01*
X12219853Y-84042852D02*
G75*
G02*
X11084430Y-80964834I1164577J2178018D01*
G01*
X285200000Y-82500000D02*
G75*
G02*
X12219853Y-84042852I-138180148J298257147D01*
G01*
X137400000Y-60000000D02*
X160200000Y-60000000D01*
M02*
