%TF.GenerationSoftware,KiCad,Pcbnew,(5.1.6)-1*%
%TF.CreationDate,2020-12-26T21:50:01+02:00*%
%TF.ProjectId,cubetimer,63756265-7469-46d6-9572-2e6b69636164,rev?*%
%TF.SameCoordinates,Original*%
%TF.FileFunction,Soldermask,Bot*%
%TF.FilePolarity,Negative*%
%FSLAX46Y46*%
G04 Gerber Fmt 4.6, Leading zero omitted, Abs format (unit mm)*
G04 Created by KiCad (PCBNEW (5.1.6)-1) date 2020-12-26 21:50:01*
%MOMM*%
%LPD*%
G01*
G04 APERTURE LIST*
%ADD10C,1.624000*%
%ADD11C,2.800000*%
%ADD12C,3.150000*%
%ADD13C,4.100000*%
%ADD14C,1.800000*%
%ADD15C,2.300000*%
%ADD16R,1.800000X1.800000*%
%ADD17O,1.800000X1.800000*%
G04 APERTURE END LIST*
D10*
%TO.C,U1*%
X160230000Y-107050000D03*
X160230000Y-104510000D03*
X160230000Y-101970000D03*
X160230000Y-99430000D03*
X160230000Y-96890000D03*
X160230000Y-94350000D03*
X160230000Y-91810000D03*
X160230000Y-89270000D03*
X160230000Y-86730000D03*
X160230000Y-84190000D03*
X160230000Y-81650000D03*
X160230000Y-79110000D03*
X137370000Y-107050000D03*
X137370000Y-104510000D03*
X137370000Y-101970000D03*
X137370000Y-99430000D03*
X137370000Y-96890000D03*
X137370000Y-94350000D03*
X137370000Y-91810000D03*
X137370000Y-89270000D03*
X137370000Y-86730000D03*
X137370000Y-84190000D03*
X137370000Y-81650000D03*
X137370000Y-79110000D03*
%TD*%
D11*
%TO.C,H8*%
X283700000Y-79900000D03*
%TD*%
%TO.C,H7*%
X278600000Y-62800000D03*
%TD*%
%TO.C,H6*%
X187500000Y-87000000D03*
%TD*%
%TO.C,H4*%
X108600000Y-86600000D03*
%TD*%
%TO.C,H2*%
X13900000Y-81600000D03*
%TD*%
%TO.C,H1*%
X18700000Y-62900000D03*
%TD*%
D12*
%TO.C,SW1*%
X123039772Y-92728974D03*
X26447190Y-66847070D03*
D13*
X22502787Y-81567779D03*
X119095370Y-107449684D03*
D14*
X77838651Y-87864304D03*
X68024844Y-85234702D03*
D13*
X72931748Y-86549503D03*
D15*
X69908971Y-83109951D03*
X76700000Y-82300000D03*
%TD*%
%TO.C,SW2*%
X225670000Y-81000000D03*
X220193771Y-85096953D03*
D13*
X224531349Y-86564304D03*
D14*
X219624446Y-87879104D03*
X229438252Y-85249503D03*
D13*
X274960309Y-81582580D03*
X178367727Y-107464485D03*
D12*
X174423325Y-92743775D03*
X271015907Y-66861871D03*
%TD*%
D16*
%TO.C,J1*%
X38200000Y-69000000D03*
D17*
X38200000Y-66460000D03*
X38200000Y-63920000D03*
%TD*%
%TO.C,J2*%
X259300000Y-63920000D03*
X259300000Y-66460000D03*
D16*
X259300000Y-69000000D03*
%TD*%
M02*
