%TF.GenerationSoftware,KiCad,Pcbnew,(5.1.6)-1*%
%TF.CreationDate,2020-12-26T21:50:01+02:00*%
%TF.ProjectId,cubetimer,63756265-7469-46d6-9572-2e6b69636164,rev?*%
%TF.SameCoordinates,Original*%
%TF.FileFunction,Copper,L1,Top*%
%TF.FilePolarity,Positive*%
%FSLAX46Y46*%
G04 Gerber Fmt 4.6, Leading zero omitted, Abs format (unit mm)*
G04 Created by KiCad (PCBNEW (5.1.6)-1) date 2020-12-26 21:50:01*
%MOMM*%
%LPD*%
G01*
G04 APERTURE LIST*
%TA.AperFunction,ComponentPad*%
%ADD10C,1.524000*%
%TD*%
%TA.AperFunction,ComponentPad*%
%ADD11C,2.200000*%
%TD*%
%TA.AperFunction,ComponentPad*%
%ADD12R,1.700000X1.700000*%
%TD*%
%TA.AperFunction,ComponentPad*%
%ADD13O,1.700000X1.700000*%
%TD*%
%TA.AperFunction,Conductor*%
%ADD14C,1.000000*%
%TD*%
G04 APERTURE END LIST*
D10*
%TO.P,U1,13*%
%TO.N,GND*%
X160230000Y-107050000D03*
%TO.P,U1,14*%
X160230000Y-104510000D03*
%TO.P,U1,15*%
%TO.N,Net-(U1-Pad15)*%
X160230000Y-101970000D03*
%TO.P,U1,16*%
%TO.N,Net-(U1-Pad16)*%
X160230000Y-99430000D03*
%TO.P,U1,17*%
%TO.N,Net-(SW2-Pad2)*%
X160230000Y-96890000D03*
%TO.P,U1,18*%
%TO.N,Net-(U1-Pad18)*%
X160230000Y-94350000D03*
%TO.P,U1,19*%
%TO.N,Net-(U1-Pad19)*%
X160230000Y-91810000D03*
%TO.P,U1,20*%
%TO.N,Net-(U1-Pad20)*%
X160230000Y-89270000D03*
%TO.P,U1,21*%
%TO.N,Net-(U1-Pad21)*%
X160230000Y-86730000D03*
%TO.P,U1,22*%
%TO.N,GND*%
X160230000Y-84190000D03*
%TO.P,U1,23*%
X160230000Y-81650000D03*
%TO.P,U1,24*%
%TO.N,+3V3*%
X160230000Y-79110000D03*
%TO.P,U1,12*%
X137370000Y-107050000D03*
%TO.P,U1,11*%
%TO.N,Net-(U1-Pad11)*%
X137370000Y-104510000D03*
%TO.P,U1,10*%
%TO.N,Net-(U1-Pad10)*%
X137370000Y-101970000D03*
%TO.P,U1,9*%
%TO.N,Net-(U1-Pad9)*%
X137370000Y-99430000D03*
%TO.P,U1,8*%
%TO.N,Net-(U1-Pad8)*%
X137370000Y-96890000D03*
%TO.P,U1,7*%
%TO.N,Net-(SW1-Pad1)*%
X137370000Y-94350000D03*
%TO.P,U1,6*%
%TO.N,Net-(U1-Pad6)*%
X137370000Y-91810000D03*
%TO.P,U1,5*%
%TO.N,Din*%
X137370000Y-89270000D03*
%TO.P,U1,4*%
%TO.N,Net-(U1-Pad4)*%
X137370000Y-86730000D03*
%TO.P,U1,3*%
%TO.N,Net-(U1-Pad3)*%
X137370000Y-84190000D03*
%TO.P,U1,2*%
%TO.N,GND*%
X137370000Y-81650000D03*
%TO.P,U1,1*%
%TO.N,Net-(U1-Pad1)*%
X137370000Y-79110000D03*
%TD*%
D11*
%TO.P,SW1,2*%
%TO.N,GND*%
X69908971Y-83109951D03*
%TO.P,SW1,1*%
%TO.N,Net-(SW1-Pad1)*%
X76700000Y-82300000D03*
%TD*%
%TO.P,SW2,1*%
%TO.N,GND*%
X225670000Y-81000000D03*
%TO.P,SW2,2*%
%TO.N,Net-(SW2-Pad2)*%
X220193771Y-85096953D03*
%TD*%
D12*
%TO.P,J1,1*%
%TO.N,GND*%
X38200000Y-69000000D03*
D13*
%TO.P,J1,2*%
%TO.N,Din*%
X38200000Y-66460000D03*
%TO.P,J1,3*%
%TO.N,+3V3*%
X38200000Y-63920000D03*
%TD*%
%TO.P,J2,3*%
%TO.N,Net-(J2-Pad3)*%
X259300000Y-63920000D03*
%TO.P,J2,2*%
%TO.N,Net-(J2-Pad2)*%
X259300000Y-66460000D03*
D12*
%TO.P,J2,1*%
%TO.N,Net-(J2-Pad1)*%
X259300000Y-69000000D03*
%TD*%
D14*
%TO.N,Net-(SW1-Pad1)*%
X125320000Y-82300000D02*
X137370000Y-94350000D01*
X76700000Y-82300000D02*
X125320000Y-82300000D01*
%TO.N,Net-(SW2-Pad2)*%
X160230000Y-96890000D02*
X200210000Y-96890000D01*
X212003047Y-85096953D02*
X220193771Y-85096953D01*
X200210000Y-96890000D02*
X212003047Y-85096953D01*
%TO.N,+3V3*%
X60920000Y-63920000D02*
X38200000Y-63920000D01*
X64900000Y-67900000D02*
X60920000Y-63920000D01*
X156200000Y-67900000D02*
X64900000Y-67900000D01*
X160230000Y-79110000D02*
X160230000Y-71930000D01*
X160230000Y-71930000D02*
X156200000Y-67900000D01*
%TO.N,Din*%
X61460000Y-66460000D02*
X38200000Y-66460000D01*
X72300000Y-77300000D02*
X61460000Y-66460000D01*
X137370000Y-89270000D02*
X125400000Y-77300000D01*
X125400000Y-77300000D02*
X72300000Y-77300000D01*
%TD*%
M02*
